<svg xmlns="http://www.w3.org/2000/svg" xmlns:xlink="http://www.w3.org/1999/xlink" width="100" zoomAndPan="magnify" viewBox="0 0 75 74.999997" height="100" preserveAspectRatio="xMidYMid meet" version="1.0"><defs><clipPath id="14041e4e87"><path d="M 7.5 7.5 L 67.5 7.5 L 67.5 67.5 L 7.5 67.5 Z M 7.5 7.5 " clip-rule="nonzero"/></clipPath></defs><g clip-path="url(#14041e4e87)"><path fill="#faf9f8" d="M 14.167969 7.5 C 10.488281 7.5 7.5 10.488281 7.5 14.167969 L 7.5 60.832031 C 7.5 64.511719 10.488281 67.5 14.167969 67.5 L 60.832031 67.5 C 64.511719 67.5 67.5 64.511719 67.5 60.832031 L 67.5 14.167969 C 67.5 10.488281 64.511719 7.5 60.832031 7.5 Z M 14.167969 14.167969 L 60.832031 14.167969 L 60.839844 60.832031 L 45.546875 60.832031 L 45.546875 47.617188 L 53.429688 47.617188 L 54.601562 38.535156 L 45.597656 38.535156 L 45.597656 32.746094 C 45.597656 30.121094 46.332031 28.347656 50.097656 28.347656 L 54.855469 28.347656 L 54.855469 20.242188 C 52.539062 20.003906 50.214844 19.890625 47.882812 19.894531 C 40.972656 19.894531 36.238281 24.117188 36.238281 31.863281 L 36.238281 38.546875 L 28.425781 38.546875 L 28.425781 47.628906 L 36.238281 47.628906 L 36.238281 60.832031 L 14.167969 60.832031 Z M 14.167969 14.167969 " fill-opacity="1" fill-rule="nonzero"/></g></svg>