<svg xmlns="http://www.w3.org/2000/svg" xmlns:xlink="http://www.w3.org/1999/xlink" width="100" zoomAndPan="magnify" viewBox="0 0 75 74.999997" height="100" preserveAspectRatio="xMidYMid meet" version="1.0"><defs><clipPath id="558c7c41d8"><path d="M 9.277344 9.277344 L 65.527344 9.277344 L 65.527344 65.527344 L 9.277344 65.527344 Z M 9.277344 9.277344 " clip-rule="nonzero"/></clipPath></defs><g clip-path="url(#558c7c41d8)"><path fill="#faf9f8" d="M 37.390625 14.347656 C 44.894531 14.347656 45.78125 14.371094 48.753906 14.507812 C 51.488281 14.632812 52.980469 15.085938 53.976562 15.480469 C 55.285156 15.988281 56.222656 16.601562 57.207031 17.589844 C 58.191406 18.574219 58.796875 19.511719 59.316406 20.816406 C 59.695312 21.804688 60.152344 23.296875 60.289062 26.042969 C 60.421875 29.015625 60.449219 29.902344 60.449219 37.40625 C 60.449219 44.914062 60.421875 45.800781 60.289062 48.769531 C 60.164062 51.507812 59.710938 53 59.316406 53.996094 C 58.808594 55.304688 58.191406 56.238281 57.207031 57.226562 C 56.222656 58.210938 55.285156 58.816406 53.976562 59.332031 C 52.992188 59.714844 51.5 60.171875 48.753906 60.308594 C 45.78125 60.441406 44.894531 60.46875 37.390625 60.46875 C 29.882812 60.46875 28.996094 60.441406 26.027344 60.308594 C 23.289062 60.183594 21.796875 59.726562 20.800781 59.332031 C 19.492188 58.828125 18.558594 58.210938 17.570312 57.226562 C 16.585938 56.238281 15.980469 55.304688 15.464844 53.996094 C 15.082031 53.011719 14.625 51.519531 14.488281 48.769531 C 14.355469 45.800781 14.328125 44.914062 14.328125 37.40625 C 14.328125 29.902344 14.355469 29.015625 14.488281 26.042969 C 14.613281 23.308594 15.070312 21.816406 15.464844 20.816406 C 15.96875 19.511719 16.585938 18.574219 17.570312 17.589844 C 18.558594 16.601562 19.492188 16 20.800781 15.480469 C 21.785156 15.101562 23.277344 14.644531 26.027344 14.507812 C 28.996094 14.371094 29.882812 14.347656 37.390625 14.347656 M 37.390625 9.28125 C 29.746094 9.28125 28.796875 9.320312 25.792969 9.453125 C 22.796875 9.589844 20.75 10.070312 18.964844 10.761719 C 17.113281 11.476562 15.550781 12.4375 13.984375 14.003906 C 12.429688 15.566406 11.46875 17.132812 10.753906 18.980469 C 10.066406 20.769531 9.585938 22.816406 9.449219 25.808594 C 9.3125 28.804688 9.277344 29.765625 9.277344 37.394531 C 9.277344 45.035156 9.3125 45.984375 9.449219 48.992188 C 9.585938 51.988281 10.066406 54.035156 10.753906 55.820312 C 11.46875 57.667969 12.429688 59.234375 13.996094 60.800781 C 15.5625 62.363281 17.128906 63.328125 18.976562 64.042969 C 20.761719 64.730469 22.808594 65.210938 25.804688 65.347656 C 28.796875 65.484375 29.761719 65.519531 37.402344 65.519531 C 45.042969 65.519531 45.992188 65.484375 49 65.347656 C 51.992188 65.210938 54.039062 64.730469 55.828125 64.042969 C 57.675781 63.328125 59.242188 62.363281 60.804688 60.800781 C 62.371094 59.234375 63.332031 57.667969 64.046875 55.820312 C 64.738281 54.035156 65.21875 51.988281 65.355469 48.992188 C 65.488281 45.996094 65.527344 45.035156 65.527344 37.394531 C 65.527344 29.753906 65.488281 28.804688 65.355469 25.796875 C 65.21875 22.800781 64.738281 20.757812 64.046875 18.96875 C 63.332031 17.121094 62.371094 15.554688 60.804688 13.992188 C 59.242188 12.425781 57.675781 11.464844 55.828125 10.75 C 54.039062 10.058594 51.992188 9.578125 49 9.441406 C 45.992188 9.320312 45.03125 9.28125 37.390625 9.28125 " fill-opacity="1" fill-rule="nonzero"/></g><path fill="#faf9f8" d="M 37.390625 22.960938 C 29.414062 22.960938 22.957031 29.421875 22.957031 37.394531 C 22.957031 45.371094 29.425781 51.839844 37.402344 51.839844 C 45.375 51.839844 51.847656 45.382812 51.847656 37.394531 C 51.832031 29.421875 45.363281 22.960938 37.390625 22.960938 M 37.390625 46.773438 C 32.210938 46.773438 28.023438 42.582031 28.023438 37.40625 C 28.023438 32.230469 32.210938 28.039062 37.390625 28.039062 C 42.566406 28.039062 46.753906 32.230469 46.753906 37.40625 C 46.769531 42.570312 42.566406 46.773438 37.390625 46.773438 " fill-opacity="1" fill-rule="nonzero"/><path fill="#faf9f8" d="M 55.777344 22.394531 C 55.777344 24.257812 54.261719 25.773438 52.402344 25.773438 C 50.539062 25.773438 49.023438 24.257812 49.023438 22.394531 C 49.023438 20.535156 50.539062 19.019531 52.402344 19.019531 C 54.261719 19.019531 55.777344 20.523438 55.777344 22.394531 " fill-opacity="1" fill-rule="nonzero"/></svg>