<svg xmlns="http://www.w3.org/2000/svg" xmlns:xlink="http://www.w3.org/1999/xlink" width="100" zoomAndPan="magnify" viewBox="0 0 75 74.999997" height="100" preserveAspectRatio="xMidYMid meet" version="1.0"><defs><clipPath id="13e44f5518"><path d="M 8.285156 8.285156 L 66.785156 8.285156 L 66.785156 66.785156 L 8.285156 66.785156 Z M 8.285156 8.285156 " clip-rule="nonzero"/></clipPath></defs><g clip-path="url(#13e44f5518)"><path fill="#faf9f8" d="M 57.035156 66.785156 L 18.035156 66.785156 C 17.394531 66.785156 16.761719 66.722656 16.132812 66.597656 C 15.507812 66.472656 14.898438 66.285156 14.304688 66.042969 C 13.714844 65.796875 13.152344 65.496094 12.621094 65.140625 C 12.089844 64.785156 11.597656 64.378906 11.144531 63.925781 C 10.691406 63.476562 10.289062 62.984375 9.933594 62.449219 C 9.578125 61.917969 9.277344 61.355469 9.03125 60.765625 C 8.785156 60.175781 8.601562 59.566406 8.476562 58.9375 C 8.351562 58.308594 8.285156 57.675781 8.285156 57.035156 L 8.285156 18.035156 C 8.285156 17.394531 8.351562 16.761719 8.476562 16.132812 C 8.601562 15.507812 8.785156 14.898438 9.03125 14.304688 C 9.277344 13.714844 9.578125 13.152344 9.933594 12.621094 C 10.289062 12.089844 10.691406 11.597656 11.144531 11.144531 C 11.597656 10.691406 12.089844 10.289062 12.621094 9.933594 C 13.152344 9.578125 13.714844 9.277344 14.304688 9.03125 C 14.898438 8.785156 15.507812 8.601562 16.132812 8.476562 C 16.761719 8.351562 17.394531 8.285156 18.035156 8.285156 L 57.035156 8.285156 C 57.675781 8.285156 58.308594 8.351562 58.9375 8.476562 C 59.566406 8.601562 60.175781 8.785156 60.765625 9.03125 C 61.355469 9.277344 61.917969 9.578125 62.449219 9.933594 C 62.984375 10.289062 63.476562 10.691406 63.925781 11.144531 C 64.378906 11.597656 64.785156 12.089844 65.140625 12.621094 C 65.496094 13.152344 65.796875 13.714844 66.042969 14.304688 C 66.285156 14.898438 66.472656 15.507812 66.597656 16.132812 C 66.722656 16.761719 66.785156 17.394531 66.785156 18.035156 L 66.785156 57.035156 C 66.785156 57.675781 66.722656 58.308594 66.597656 58.9375 C 66.472656 59.566406 66.285156 60.175781 66.042969 60.765625 C 65.796875 61.355469 65.496094 61.917969 65.140625 62.449219 C 64.785156 62.984375 64.378906 63.476562 63.925781 63.925781 C 63.476562 64.378906 62.984375 64.785156 62.449219 65.140625 C 61.917969 65.496094 61.355469 65.796875 60.765625 66.042969 C 60.175781 66.285156 59.566406 66.472656 58.9375 66.597656 C 58.308594 66.722656 57.675781 66.785156 57.035156 66.785156 Z M 18.035156 14.785156 C 17.605469 14.785156 17.191406 14.867188 16.792969 15.035156 C 16.394531 15.199219 16.042969 15.433594 15.738281 15.738281 C 15.433594 16.042969 15.199219 16.394531 15.035156 16.792969 C 14.867188 17.191406 14.785156 17.605469 14.785156 18.035156 L 14.785156 57.035156 C 14.785156 57.46875 14.867188 57.882812 15.035156 58.28125 C 15.199219 58.679688 15.433594 59.03125 15.738281 59.335938 C 16.042969 59.640625 16.394531 59.875 16.792969 60.039062 C 17.191406 60.203125 17.605469 60.285156 18.035156 60.285156 L 57.035156 60.285156 C 57.46875 60.285156 57.882812 60.203125 58.28125 60.039062 C 58.679688 59.875 59.03125 59.640625 59.335938 59.335938 C 59.640625 59.03125 59.875 58.679688 60.039062 58.28125 C 60.203125 57.882812 60.285156 57.46875 60.285156 57.035156 L 60.285156 18.035156 C 60.285156 17.605469 60.203125 17.191406 60.039062 16.792969 C 59.875 16.394531 59.640625 16.042969 59.335938 15.738281 C 59.03125 15.433594 58.679688 15.199219 58.28125 15.035156 C 57.882812 14.867188 57.46875 14.785156 57.035156 14.785156 Z M 18.035156 14.785156 " fill-opacity="1" fill-rule="nonzero"/></g><path fill="#faf9f8" d="M 24.535156 53.785156 C 24.105469 53.785156 23.691406 53.703125 23.292969 53.539062 C 22.894531 53.375 22.542969 53.140625 22.238281 52.835938 C 21.933594 52.53125 21.699219 52.179688 21.535156 51.78125 C 21.367188 51.382812 21.285156 50.96875 21.285156 50.535156 L 21.285156 34.285156 C 21.285156 33.855469 21.367188 33.441406 21.535156 33.042969 C 21.699219 32.644531 21.933594 32.292969 22.238281 31.988281 C 22.542969 31.683594 22.894531 31.449219 23.292969 31.285156 C 23.691406 31.117188 24.105469 31.035156 24.535156 31.035156 C 24.96875 31.035156 25.382812 31.117188 25.78125 31.285156 C 26.179688 31.449219 26.53125 31.683594 26.835938 31.988281 C 27.140625 32.292969 27.375 32.644531 27.539062 33.042969 C 27.703125 33.441406 27.785156 33.855469 27.785156 34.285156 L 27.785156 50.535156 C 27.785156 50.96875 27.703125 51.382812 27.539062 51.78125 C 27.375 52.179688 27.140625 52.53125 26.835938 52.835938 C 26.53125 53.140625 26.179688 53.375 25.78125 53.539062 C 25.382812 53.703125 24.96875 53.785156 24.535156 53.785156 Z M 24.535156 53.785156 " fill-opacity="1" fill-rule="nonzero"/><path fill="#faf9f8" d="M 24.535156 27.820312 C 24.105469 27.820312 23.6875 27.738281 23.289062 27.574219 C 22.890625 27.410156 22.539062 27.175781 22.230469 26.871094 C 21.925781 26.566406 21.6875 26.214844 21.523438 25.820312 C 21.355469 25.421875 21.273438 25.003906 21.269531 24.574219 C 21.269531 24.140625 21.347656 23.726562 21.511719 23.328125 C 21.675781 22.929688 21.910156 22.574219 22.210938 22.269531 C 22.515625 21.960938 22.867188 21.722656 23.265625 21.558594 C 23.664062 21.390625 24.078125 21.304688 24.507812 21.300781 C 24.941406 21.300781 25.355469 21.378906 25.757812 21.542969 C 26.15625 21.707031 26.507812 21.9375 26.816406 22.242188 C 27.125 22.542969 27.359375 22.894531 27.527344 23.292969 C 27.695312 23.691406 27.78125 24.105469 27.785156 24.535156 L 27.785156 24.570312 C 27.785156 25 27.703125 25.414062 27.539062 25.8125 C 27.375 26.210938 27.140625 26.5625 26.835938 26.867188 C 26.53125 27.171875 26.179688 27.40625 25.78125 27.570312 C 25.382812 27.734375 24.96875 27.820312 24.535156 27.820312 Z M 24.535156 27.820312 " fill-opacity="1" fill-rule="nonzero"/><path fill="#faf9f8" d="M 37.535156 53.785156 C 37.105469 53.785156 36.691406 53.703125 36.292969 53.539062 C 35.894531 53.375 35.542969 53.140625 35.238281 52.835938 C 34.933594 52.53125 34.699219 52.179688 34.535156 51.78125 C 34.367188 51.382812 34.285156 50.96875 34.285156 50.535156 L 34.285156 34.285156 C 34.285156 33.855469 34.367188 33.441406 34.535156 33.042969 C 34.699219 32.644531 34.933594 32.292969 35.238281 31.988281 C 35.542969 31.683594 35.894531 31.449219 36.292969 31.285156 C 36.691406 31.117188 37.105469 31.035156 37.535156 31.035156 C 37.96875 31.035156 38.382812 31.117188 38.78125 31.285156 C 39.179688 31.449219 39.53125 31.683594 39.835938 31.988281 C 40.140625 32.292969 40.375 32.644531 40.539062 33.042969 C 40.703125 33.441406 40.785156 33.855469 40.785156 34.285156 L 40.785156 50.535156 C 40.785156 50.96875 40.703125 51.382812 40.539062 51.78125 C 40.375 52.179688 40.140625 52.53125 39.835938 52.835938 C 39.53125 53.140625 39.179688 53.375 38.78125 53.539062 C 38.382812 53.703125 37.96875 53.785156 37.535156 53.785156 Z M 37.535156 53.785156 " fill-opacity="1" fill-rule="nonzero"/><path fill="#faf9f8" d="M 50.535156 53.785156 C 50.105469 53.785156 49.691406 53.703125 49.292969 53.539062 C 48.894531 53.375 48.542969 53.140625 48.238281 52.835938 C 47.933594 52.53125 47.699219 52.179688 47.535156 51.78125 C 47.367188 51.382812 47.285156 50.96875 47.285156 50.535156 L 47.285156 40.785156 C 47.285156 40.355469 47.203125 39.941406 47.039062 39.542969 C 46.875 39.144531 46.640625 38.792969 46.335938 38.488281 C 46.03125 38.183594 45.679688 37.949219 45.28125 37.785156 C 44.882812 37.617188 44.46875 37.535156 44.035156 37.535156 C 43.605469 37.535156 43.191406 37.617188 42.792969 37.785156 C 42.394531 37.949219 42.042969 38.183594 41.738281 38.488281 C 41.433594 38.792969 41.199219 39.144531 41.035156 39.542969 C 40.867188 39.941406 40.785156 40.355469 40.785156 40.785156 C 40.785156 41.21875 40.703125 41.632812 40.539062 42.03125 C 40.375 42.429688 40.140625 42.78125 39.835938 43.085938 C 39.53125 43.390625 39.179688 43.625 38.78125 43.789062 C 38.382812 43.953125 37.96875 44.035156 37.535156 44.035156 C 37.105469 44.035156 36.691406 43.953125 36.292969 43.789062 C 35.894531 43.625 35.542969 43.390625 35.238281 43.085938 C 34.933594 42.78125 34.699219 42.429688 34.535156 42.03125 C 34.367188 41.632812 34.285156 41.21875 34.285156 40.785156 C 34.285156 40.144531 34.347656 39.511719 34.472656 38.882812 C 34.597656 38.257812 34.785156 37.644531 35.027344 37.054688 C 35.273438 36.464844 35.574219 35.902344 35.929688 35.371094 C 36.285156 34.835938 36.6875 34.34375 37.140625 33.890625 C 37.59375 33.4375 38.085938 33.035156 38.621094 32.679688 C 39.152344 32.324219 39.714844 32.023438 40.304688 31.777344 C 40.894531 31.535156 41.507812 31.347656 42.132812 31.222656 C 42.761719 31.097656 43.394531 31.035156 44.035156 31.035156 C 44.675781 31.035156 45.308594 31.097656 45.9375 31.222656 C 46.566406 31.347656 47.175781 31.535156 47.765625 31.777344 C 48.359375 32.023438 48.921875 32.324219 49.453125 32.679688 C 49.984375 33.035156 50.476562 33.4375 50.929688 33.890625 C 51.382812 34.34375 51.789062 34.835938 52.144531 35.371094 C 52.5 35.902344 52.800781 36.464844 53.042969 37.054688 C 53.289062 37.644531 53.472656 38.257812 53.597656 38.882812 C 53.722656 39.511719 53.785156 40.144531 53.785156 40.785156 L 53.785156 50.535156 C 53.785156 50.96875 53.703125 51.382812 53.539062 51.78125 C 53.375 52.179688 53.140625 52.53125 52.835938 52.835938 C 52.53125 53.140625 52.179688 53.375 51.78125 53.539062 C 51.382812 53.703125 50.96875 53.785156 50.535156 53.785156 Z M 50.535156 53.785156 " fill-opacity="1" fill-rule="nonzero"/></svg>