<svg xmlns="http://www.w3.org/2000/svg" xmlns:xlink="http://www.w3.org/1999/xlink" width="80" zoomAndPan="magnify" viewBox="0 0 60 60" height="80" preserveAspectRatio="xMidYMid meet" version="1.0"><defs><clipPath id="d191d314d0"><path d="M 10.414062 0 L 56.835938 0 L 56.835938 60 L 10.414062 60 Z M 10.414062 0 " clip-rule="nonzero"/></clipPath><clipPath id="44ac12ef59"><path d="M 2.851562 36 L 37 36 L 37 60 L 2.851562 60 Z M 2.851562 36 " clip-rule="nonzero"/></clipPath></defs><g clip-path="url(#d191d314d0)"><path fill="#fdfdfd" d="M 44.757812 13.140625 L 44.757812 3.503906 L 53.613281 13.140625 Z M 56.835938 14.109375 C 56.835938 14.101562 56.835938 14.09375 56.835938 14.085938 C 56.832031 14.050781 56.832031 14.011719 56.824219 13.976562 C 56.824219 13.96875 56.824219 13.960938 56.820312 13.957031 C 56.816406 13.914062 56.804688 13.875 56.792969 13.835938 C 56.789062 13.828125 56.785156 13.816406 56.785156 13.808594 C 56.773438 13.773438 56.757812 13.742188 56.742188 13.707031 C 56.742188 13.699219 56.738281 13.695312 56.734375 13.691406 C 56.71875 13.652344 56.695312 13.617188 56.671875 13.582031 C 56.667969 13.574219 56.664062 13.566406 56.65625 13.558594 C 56.632812 13.523438 56.605469 13.488281 56.578125 13.457031 L 44.496094 0.316406 C 44.464844 0.285156 44.433594 0.253906 44.398438 0.226562 C 44.390625 0.21875 44.378906 0.210938 44.371094 0.203125 C 44.339844 0.179688 44.308594 0.160156 44.273438 0.136719 C 44.269531 0.136719 44.265625 0.132812 44.261719 0.128906 C 44.222656 0.109375 44.183594 0.0898438 44.144531 0.0742188 C 44.136719 0.0703125 44.125 0.0664062 44.117188 0.0625 C 44.082031 0.0507812 44.046875 0.0390625 44.007812 0.03125 C 44.003906 0.0273438 43.996094 0.0273438 43.988281 0.0234375 C 43.945312 0.015625 43.902344 0.0078125 43.859375 0.00390625 C 43.851562 0.00390625 43.84375 0.00390625 43.832031 0.00390625 C 43.8125 0.00390625 43.792969 0 43.777344 0 L 11.472656 0 C 10.933594 0 10.492188 0.441406 10.492188 0.984375 L 10.492188 34.96875 C 10.492188 35.511719 10.933594 35.953125 11.472656 35.953125 C 12.015625 35.953125 12.453125 35.511719 12.453125 34.96875 L 12.453125 1.972656 L 42.792969 1.972656 L 42.792969 14.125 C 42.792969 14.671875 43.234375 15.113281 43.777344 15.113281 L 54.875 15.113281 L 54.875 58.027344 L 38.75 58.027344 C 38.207031 58.027344 37.769531 58.46875 37.769531 59.015625 C 37.769531 59.558594 38.207031 60 38.75 60 L 55.855469 60 C 56.398438 60 56.835938 59.558594 56.835938 59.015625 L 56.835938 14.125 C 56.835938 14.121094 56.835938 14.117188 56.835938 14.109375 " fill-opacity="1" fill-rule="nonzero"/></g><path fill="#fdfdfd" d="M 18.53125 13.246094 L 18.53125 18.0625 L 18.152344 18.0625 L 18.152344 13.246094 Z M 22.566406 32.457031 L 27.359375 32.457031 L 27.359375 32.835938 L 22.566406 32.835938 Z M 38.691406 32.457031 L 43.484375 32.457031 L 43.484375 32.835938 L 38.691406 32.835938 Z M 30.636719 12.453125 C 31.175781 12.453125 31.617188 12.011719 31.617188 11.464844 L 31.617188 9.496094 L 34.277344 9.496094 C 34.816406 9.496094 35.257812 9.054688 35.257812 8.511719 C 35.257812 7.96875 34.816406 7.527344 34.277344 7.527344 L 17.171875 7.527344 C 16.628906 7.527344 16.191406 7.96875 16.191406 8.511719 L 16.191406 33.820312 C 16.191406 34.367188 16.628906 34.808594 17.171875 34.808594 L 48.878906 34.808594 C 49.421875 34.808594 49.859375 34.367188 49.859375 33.820312 L 49.859375 19.269531 C 49.859375 18.726562 49.421875 18.285156 48.878906 18.285156 C 48.339844 18.285156 47.898438 18.726562 47.898438 19.269531 L 47.898438 21.28125 L 42.914062 21.28125 C 42.375 21.28125 41.933594 21.722656 41.933594 22.269531 C 41.933594 22.8125 42.375 23.253906 42.914062 23.253906 L 47.898438 23.253906 L 47.898438 32.835938 L 45.445312 32.835938 L 45.445312 31.46875 C 45.445312 30.925781 45.007812 30.484375 44.464844 30.484375 L 37.710938 30.484375 C 37.167969 30.484375 36.730469 30.925781 36.730469 31.46875 L 36.730469 32.835938 L 29.320312 32.835938 L 29.320312 31.46875 C 29.320312 30.925781 28.882812 30.484375 28.339844 30.484375 L 21.585938 30.484375 C 21.042969 30.484375 20.605469 30.925781 20.605469 31.46875 L 20.605469 32.835938 L 18.152344 32.835938 L 18.152344 23.253906 L 36.292969 23.253906 C 36.835938 23.253906 37.273438 22.8125 37.273438 22.269531 C 37.273438 21.722656 36.835938 21.28125 36.292969 21.28125 L 31.617188 21.28125 L 31.617188 15.65625 C 31.617188 15.109375 31.175781 14.667969 30.636719 14.667969 C 30.09375 14.667969 29.65625 15.109375 29.65625 15.65625 L 29.65625 21.28125 L 18.152344 21.28125 L 18.152344 20.035156 L 19.511719 20.035156 C 20.054688 20.035156 20.492188 19.59375 20.492188 19.050781 L 20.492188 12.257812 C 20.492188 11.714844 20.054688 11.273438 19.511719 11.273438 L 18.152344 11.273438 L 18.152344 9.496094 L 29.65625 9.496094 L 29.65625 11.464844 C 29.65625 12.011719 30.09375 12.453125 30.636719 12.453125 " fill-opacity="1" fill-rule="nonzero"/><path fill="#fdfdfd" d="M 48.878906 37.339844 L 30.328125 37.339844 C 29.789062 37.339844 29.347656 37.78125 29.347656 38.324219 C 29.347656 38.867188 29.789062 39.308594 30.328125 39.308594 L 48.878906 39.308594 C 49.421875 39.308594 49.859375 38.867188 49.859375 38.324219 C 49.859375 37.78125 49.421875 37.339844 48.878906 37.339844 " fill-opacity="1" fill-rule="nonzero"/><path fill="#fdfdfd" d="M 48.878906 41.21875 L 32.683594 41.21875 C 32.140625 41.21875 31.703125 41.660156 31.703125 42.203125 C 31.703125 42.75 32.140625 43.191406 32.683594 43.191406 L 48.878906 43.191406 C 49.421875 43.191406 49.859375 42.75 49.859375 42.203125 C 49.859375 41.660156 49.421875 41.21875 48.878906 41.21875 " fill-opacity="1" fill-rule="nonzero"/><path fill="#fdfdfd" d="M 48.878906 45.097656 L 35.035156 45.097656 C 34.496094 45.097656 34.054688 45.539062 34.054688 46.085938 C 34.054688 46.628906 34.496094 47.070312 35.035156 47.070312 L 48.878906 47.070312 C 49.421875 47.070312 49.859375 46.628906 49.859375 46.085938 C 49.859375 45.539062 49.421875 45.097656 48.878906 45.097656 " fill-opacity="1" fill-rule="nonzero"/><path fill="#fdfdfd" d="M 49.859375 49.964844 C 49.859375 49.421875 49.421875 48.980469 48.878906 48.980469 L 36.605469 48.980469 C 36.0625 48.980469 35.625 49.421875 35.625 49.964844 C 35.625 50.511719 36.0625 50.949219 36.605469 50.949219 L 48.878906 50.949219 C 49.421875 50.949219 49.859375 50.511719 49.859375 49.964844 " fill-opacity="1" fill-rule="nonzero"/><path fill="#fdfdfd" d="M 48.878906 52.859375 L 38.960938 52.859375 C 38.417969 52.859375 37.976562 53.300781 37.976562 53.84375 C 37.976562 54.390625 38.417969 54.832031 38.960938 54.832031 L 48.878906 54.832031 C 49.421875 54.832031 49.859375 54.390625 49.859375 53.84375 C 49.859375 53.300781 49.421875 52.859375 48.878906 52.859375 " fill-opacity="1" fill-rule="nonzero"/><g clip-path="url(#44ac12ef59)"><path fill="#fdfdfd" d="M 33.246094 58.027344 L 6.175781 58.027344 C 5.429688 58.027344 4.816406 57.414062 4.816406 56.660156 C 4.816406 55.90625 5.429688 55.292969 6.175781 55.292969 L 33.246094 55.292969 C 33.996094 55.292969 34.605469 55.90625 34.605469 56.660156 C 34.605469 57.414062 33.996094 58.027344 33.246094 58.027344 Z M 13.433594 42.667969 L 15.414062 47.390625 L 15.414062 48.679688 C 15.414062 49.222656 15.855469 49.664062 16.394531 49.664062 C 16.9375 49.664062 17.375 49.222656 17.375 48.679688 L 17.375 47.191406 C 17.375 47.058594 17.351562 46.929688 17.300781 46.808594 L 14.355469 39.789062 C 15.726562 39.171875 17.195312 38.804688 18.683594 38.6875 C 19.253906 38.644531 19.828125 38.636719 20.398438 38.667969 C 22.003906 38.75 23.589844 39.125 25.066406 39.789062 L 22.125 46.808594 C 22.074219 46.929688 22.046875 47.058594 22.046875 47.191406 L 22.046875 48.679688 C 22.046875 49.222656 22.488281 49.664062 23.027344 49.664062 C 23.570312 49.664062 24.011719 49.222656 24.011719 48.679688 L 24.011719 47.390625 L 25.988281 42.667969 C 29.925781 44.816406 32.523438 48.839844 32.855469 53.320312 L 6.570312 53.320312 C 6.902344 48.839844 9.496094 44.816406 13.433594 42.667969 Z M 34.84375 53.734375 C 34.636719 48.296875 31.539062 43.371094 26.757812 40.839844 L 27.234375 39.695312 C 27.433594 39.226562 27.242188 38.683594 26.792969 38.441406 C 22.445312 36.125 16.980469 36.125 12.632812 38.441406 C 12.183594 38.683594 11.992188 39.226562 12.1875 39.695312 L 12.667969 40.839844 C 7.886719 43.371094 4.789062 48.296875 4.582031 53.734375 C 3.554688 54.300781 2.855469 55.402344 2.855469 56.660156 C 2.855469 58.503906 4.347656 60 6.175781 60 L 33.246094 60 C 35.078125 60 36.566406 58.503906 36.566406 56.660156 C 36.566406 55.402344 35.871094 54.300781 34.84375 53.734375 " fill-opacity="1" fill-rule="nonzero"/></g></svg>