<svg xmlns="http://www.w3.org/2000/svg" xmlns:xlink="http://www.w3.org/1999/xlink" width="80" zoomAndPan="magnify" viewBox="0 0 60 60" height="80" preserveAspectRatio="xMidYMid meet" version="1.0"><path fill="#ffffff" d="M 28.066406 27.097656 C 29.628906 27.097656 31.03125 26.230469 31.730469 24.832031 L 31.832031 24.625 L 30.101562 23.761719 L 30 23.964844 C 29.632812 24.703125 28.890625 25.160156 28.066406 25.160156 C 27.238281 25.160156 26.496094 24.703125 26.128906 23.964844 L 26.027344 23.761719 L 24.296875 24.628906 L 24.398438 24.832031 C 25.097656 26.230469 26.5 27.097656 28.066406 27.097656 Z M 28.066406 27.097656 " fill-opacity="1" fill-rule="nonzero"/><path fill="#ffffff" d="M 25.160156 18.386719 C 25.160156 18.65625 25.066406 18.882812 24.878906 19.070312 C 24.6875 19.261719 24.460938 19.355469 24.195312 19.355469 C 23.925781 19.355469 23.699219 19.261719 23.507812 19.070312 C 23.320312 18.882812 23.226562 18.65625 23.226562 18.386719 C 23.226562 18.121094 23.320312 17.890625 23.507812 17.703125 C 23.699219 17.515625 23.925781 17.417969 24.195312 17.417969 C 24.460938 17.417969 24.6875 17.515625 24.878906 17.703125 C 25.066406 17.890625 25.160156 18.121094 25.160156 18.386719 Z M 25.160156 18.386719 " fill-opacity="1" fill-rule="nonzero"/><path fill="#ffffff" d="M 32.902344 18.386719 C 32.902344 18.65625 32.808594 18.882812 32.621094 19.070312 C 32.429688 19.261719 32.203125 19.355469 31.933594 19.355469 C 31.667969 19.355469 31.441406 19.261719 31.25 19.070312 C 31.0625 18.882812 30.96875 18.65625 30.96875 18.386719 C 30.96875 18.121094 31.0625 17.890625 31.25 17.703125 C 31.441406 17.515625 31.667969 17.417969 31.933594 17.417969 C 32.203125 17.417969 32.429688 17.515625 32.621094 17.703125 C 32.808594 17.890625 32.902344 18.121094 32.902344 18.386719 Z M 32.902344 18.386719 " fill-opacity="1" fill-rule="nonzero"/><path fill="#ffffff" d="M 27.097656 17.417969 L 29.03125 17.417969 L 29.03125 21.289062 L 27.097656 21.289062 Z M 27.097656 17.417969 " fill-opacity="1" fill-rule="nonzero"/><path fill="#ffffff" d="M 55.160156 17.417969 C 54.253906 16.207031 52.804688 15.484375 51.289062 15.484375 C 49.777344 15.484375 48.328125 16.207031 47.417969 17.417969 C 44.296875 21.578125 42.582031 26.734375 42.582031 31.933594 L 42.582031 36.351562 C 39.722656 34.484375 36.417969 33.296875 32.902344 32.96875 L 32.902344 31.742188 C 36.3125 30.808594 38.710938 27.71875 38.710938 24.113281 L 38.710938 23.226562 L 39.675781 23.226562 C 42.34375 23.226562 44.515625 21.054688 44.515625 18.386719 C 44.515625 17.292969 44.136719 16.292969 43.523438 15.484375 L 44.515625 15.484375 C 45.582031 15.484375 46.453125 14.617188 46.453125 13.546875 L 46.453125 11.613281 C 46.453125 10.546875 45.582031 9.675781 44.515625 9.675781 L 40.597656 9.675781 C 40.105469 4.261719 35.542969 0 30 0 L 26.128906 0 C 20.585938 0 16.023438 4.261719 15.535156 9.675781 L 11.613281 9.675781 C 10.546875 9.675781 9.675781 10.546875 9.675781 11.613281 L 9.675781 13.546875 C 9.675781 14.617188 10.546875 15.484375 11.613281 15.484375 L 12.605469 15.484375 C 11.992188 16.292969 11.613281 17.292969 11.613281 18.386719 C 11.613281 21.054688 13.785156 23.226562 16.453125 23.226562 L 17.417969 23.226562 L 17.417969 24.113281 C 17.417969 27.722656 19.816406 30.808594 23.226562 31.746094 L 23.226562 32.976562 C 20.035156 33.304688 17 34.414062 14.351562 36.210938 L 7.175781 29.03125 L 6.773438 29.03125 C 3.039062 29.03125 0 32.070312 0 35.804688 L 0 36.207031 L 7.710938 43.917969 C 6.46875 46.515625 5.804688 49.390625 5.804688 52.285156 L 5.804688 54.195312 C 5.804688 57.394531 8.410156 60 11.613281 60 L 40.644531 60 L 40.644531 56.128906 L 44.683594 56.128906 C 45.980469 56.128906 47.261719 55.78125 48.386719 55.152344 L 48.386719 57.097656 C 48.386719 58.699219 49.691406 60 51.289062 60 C 52.628906 60 53.746094 59.085938 54.082031 57.851562 C 54.417969 57.984375 54.777344 58.066406 55.160156 58.066406 C 56.761719 58.066406 58.066406 56.761719 58.066406 55.160156 L 58.066406 51.289062 C 58.066406 49.691406 56.761719 48.386719 55.160156 48.386719 C 54.820312 48.386719 54.496094 48.457031 54.195312 48.566406 L 54.195312 38.710938 L 58.066406 38.710938 C 59.132812 38.710938 60 37.839844 60 36.773438 L 60 31.933594 C 60 26.734375 58.28125 21.578125 55.160156 17.417969 Z M 46.453125 51.289062 C 46.453125 50.757812 46.886719 50.324219 47.417969 50.324219 C 47.953125 50.324219 48.386719 50.757812 48.386719 51.289062 C 48.386719 51.824219 47.953125 52.257812 47.417969 52.257812 C 46.886719 52.257812 46.453125 51.824219 46.453125 51.289062 Z M 48.386719 41.972656 C 47.554688 40.785156 46.613281 39.691406 45.574219 38.710938 L 48.386719 38.710938 Z M 22.660156 50.324219 L 6.386719 34.050781 C 6.839844 33.441406 7.199219 32.765625 7.429688 32.027344 L 25.726562 50.324219 Z M 16.851562 50.324219 L 2.996094 36.464844 C 3.734375 36.230469 4.410156 35.871094 5.019531 35.417969 L 19.921875 50.324219 Z M 26.53125 48.386719 L 24.59375 46.453125 L 27.097656 46.453125 L 27.097656 48.386719 Z M 32.222656 34.867188 C 32.4375 34.878906 32.65625 34.898438 32.871094 34.921875 L 32.875 35.496094 C 32.878906 36.527344 32.65625 37.511719 32.277344 38.417969 L 29.738281 36.726562 Z M 28.066406 37.9375 L 31.300781 40.09375 C 30.476562 41.160156 29.378906 42.019531 28.0625 42.523438 C 26.746094 42.023438 25.640625 41.167969 24.8125 40.105469 Z M 29.03125 46.453125 L 38.710938 46.453125 L 38.710938 48.386719 L 29.03125 48.386719 Z M 38.710938 44.515625 L 29.03125 44.515625 L 29.03125 44.214844 C 32.53125 42.753906 34.828125 39.332031 34.808594 35.488281 L 34.808594 35.214844 C 36.160156 35.488281 37.464844 35.90625 38.710938 36.453125 Z M 42.582031 18.386719 C 42.582031 19.988281 41.277344 21.289062 39.675781 21.289062 L 38.710938 21.289062 L 38.710938 19.871094 L 41.183594 18.222656 L 40.109375 16.613281 L 38.710938 17.546875 L 38.710938 15.484375 L 39.675781 15.484375 C 41.277344 15.484375 42.582031 16.785156 42.582031 18.386719 Z M 38.652344 9.675781 L 30.96875 9.675781 L 30.96875 1.992188 C 35 2.441406 38.203125 5.648438 38.652344 9.675781 Z M 27.097656 1.933594 L 29.03125 1.933594 L 29.03125 9.675781 L 27.097656 9.675781 Z M 25.160156 1.992188 L 25.160156 9.675781 L 17.476562 9.675781 C 17.925781 5.648438 21.128906 2.441406 25.160156 1.992188 Z M 11.613281 11.613281 L 44.515625 11.613281 L 44.519531 13.546875 L 11.613281 13.546875 Z M 16.453125 21.289062 C 14.851562 21.289062 13.546875 19.988281 13.546875 18.386719 C 13.546875 16.785156 14.851562 15.484375 16.453125 15.484375 L 17.417969 15.484375 L 17.417969 17.546875 L 16.019531 16.613281 L 14.949219 18.222656 L 17.417969 19.871094 L 17.417969 21.289062 Z M 19.355469 24.113281 L 19.355469 15.484375 L 36.773438 15.484375 L 36.773438 24.113281 C 36.773438 27.050781 34.671875 29.53125 31.777344 30.011719 L 30.96875 30.148438 L 30.96875 33.386719 L 28.066406 35.566406 L 25.160156 33.386719 L 25.160156 30.148438 L 24.351562 30.011719 C 21.457031 29.53125 19.355469 27.050781 19.355469 24.113281 Z M 23.910156 34.867188 L 26.390625 36.726562 L 23.832031 38.433594 C 23.453125 37.527344 23.226562 36.550781 23.226562 35.523438 L 23.226562 34.929688 C 23.453125 34.90625 23.679688 34.886719 23.910156 34.867188 Z M 21.289062 35.265625 L 21.289062 35.523438 C 21.289062 39.351562 23.589844 42.757812 27.097656 44.214844 L 27.097656 44.515625 L 22.660156 44.515625 L 15.746094 37.601562 C 17.449219 36.5 19.320312 35.71875 21.289062 35.265625 Z M 5.667969 31.105469 C 5.25 32.882812 3.851562 34.28125 2.074219 34.699219 C 2.492188 32.921875 3.890625 31.527344 5.667969 31.105469 Z M 7.742188 54.195312 L 7.742188 52.285156 C 7.742188 49.910156 8.238281 47.546875 9.167969 45.375 L 14.117188 50.324219 L 10.644531 50.324219 L 10.644531 52.257812 L 23.226562 52.257812 L 23.226562 58.066406 L 11.613281 58.066406 C 9.476562 58.066406 7.742188 56.328125 7.742188 54.195312 Z M 25.160156 58.066406 L 25.160156 52.257812 L 28.066406 52.257812 C 28.597656 52.257812 29.03125 52.691406 29.03125 53.226562 L 29.03125 57.097656 C 29.03125 57.632812 28.597656 58.066406 28.066406 58.066406 Z M 30.789062 58.066406 C 30.898438 57.761719 30.96875 57.4375 30.96875 57.097656 L 30.96875 53.226562 C 30.96875 51.964844 30.15625 50.902344 29.03125 50.5 L 29.03125 50.324219 L 38.710938 50.324219 L 38.710938 58.066406 Z M 40.644531 54.195312 L 40.644531 37.421875 C 43.945312 39.332031 46.664062 42.210938 48.386719 45.773438 L 48.386719 48.566406 C 48.082031 48.457031 47.761719 48.386719 47.417969 48.386719 C 45.820312 48.386719 44.515625 49.691406 44.515625 51.289062 C 44.515625 52.488281 45.242188 53.515625 46.277344 53.957031 C 45.761719 54.109375 45.222656 54.195312 44.683594 54.195312 Z M 52.257812 57.097656 C 52.257812 57.632812 51.824219 58.066406 51.289062 58.066406 C 50.757812 58.066406 50.324219 57.632812 50.324219 57.097656 L 50.324219 31.933594 C 50.324219 31.402344 50.757812 30.96875 51.289062 30.96875 C 51.824219 30.96875 52.257812 31.402344 52.257812 31.933594 Z M 55.160156 50.324219 C 55.695312 50.324219 56.128906 50.757812 56.128906 51.289062 L 56.128906 55.160156 C 56.128906 55.695312 55.695312 56.128906 55.160156 56.128906 C 54.628906 56.128906 54.195312 55.695312 54.195312 55.160156 L 54.195312 51.289062 C 54.195312 50.757812 54.628906 50.324219 55.160156 50.324219 Z M 58.066406 36.773438 L 54.195312 36.773438 L 54.195312 31.933594 C 54.195312 30.335938 52.890625 29.03125 51.289062 29.03125 C 49.691406 29.03125 48.386719 30.335938 48.386719 31.933594 L 48.386719 36.773438 L 44.515625 36.773438 L 44.515625 31.933594 C 44.515625 27.152344 46.097656 22.40625 48.96875 18.582031 C 49.511719 17.851562 50.382812 17.417969 51.289062 17.417969 C 52.199219 17.417969 53.066406 17.851562 53.613281 18.578125 C 56.484375 22.40625 58.066406 27.152344 58.066406 31.933594 Z M 58.066406 36.773438 " fill-opacity="1" fill-rule="nonzero"/></svg>