<svg xmlns="http://www.w3.org/2000/svg" xmlns:xlink="http://www.w3.org/1999/xlink" width="80" zoomAndPan="magnify" viewBox="0 0 60 60" height="80" preserveAspectRatio="xMidYMid meet" version="1.0"><defs><clipPath id="8133fa261a"><path d="M 0 0 L 60 0 L 60 57 L 0 57 Z M 0 0 " clip-rule="nonzero"/></clipPath></defs><path fill="#fdfdfd" d="M 10.726562 14.019531 L 8.308594 14.019531 L 8.308594 1.789062 C 8.300781 1.621094 8.328125 1.460938 8.386719 1.304688 C 8.449219 1.148438 8.539062 1.011719 8.65625 0.894531 C 8.773438 0.777344 8.914062 0.6875 9.066406 0.625 C 9.222656 0.566406 9.386719 0.539062 9.554688 0.546875 L 20.195312 0.546875 C 20.359375 0.550781 20.515625 0.582031 20.667969 0.648438 C 20.820312 0.710938 20.953125 0.800781 21.066406 0.917969 C 21.183594 1.035156 21.273438 1.167969 21.339844 1.316406 C 21.40625 1.464844 21.441406 1.621094 21.445312 1.785156 L 21.445312 4.546875 L 18.949219 4.546875 L 18.949219 3 L 10.734375 3 Z M 10.726562 14.019531 " fill-opacity="1" fill-rule="nonzero"/><path fill="#fdfdfd" d="M 29.933594 31.382812 C 30.238281 31.378906 30.539062 31.40625 30.839844 31.464844 C 31.136719 31.523438 31.425781 31.609375 31.707031 31.722656 C 31.988281 31.835938 32.257812 31.976562 32.511719 32.144531 C 32.765625 32.308594 33 32.5 33.214844 32.710938 C 33.433594 32.925781 33.625 33.15625 33.796875 33.410156 C 33.964844 33.660156 34.109375 33.925781 34.226562 34.203125 C 34.347656 34.484375 34.433594 34.769531 34.496094 35.066406 C 34.554688 35.363281 34.585938 35.664062 34.589844 35.96875 L 34.589844 37.242188 C 34.582031 37.746094 34.496094 38.238281 34.332031 38.714844 C 34.167969 39.191406 33.929688 39.628906 33.621094 40.03125 C 33.3125 40.429688 32.949219 40.773438 32.53125 41.054688 C 32.113281 41.335938 31.660156 41.546875 31.171875 41.683594 L 31.171875 42.5 C 31.175781 42.664062 31.144531 42.824219 31.082031 42.976562 C 31.019531 43.125 30.929688 43.257812 30.8125 43.375 C 30.691406 43.488281 30.558594 43.574219 30.402344 43.632812 C 30.25 43.691406 30.089844 43.71875 29.925781 43.710938 C 29.765625 43.707031 29.609375 43.675781 29.460938 43.613281 C 29.3125 43.550781 29.179688 43.460938 29.066406 43.351562 C 28.949219 43.238281 28.859375 43.109375 28.792969 42.960938 C 28.726562 42.816406 28.691406 42.664062 28.683594 42.5 L 28.683594 41.683594 C 28.195312 41.546875 27.742188 41.335938 27.324219 41.054688 C 26.902344 40.773438 26.539062 40.429688 26.234375 40.03125 C 25.925781 39.628906 25.6875 39.191406 25.523438 38.714844 C 25.355469 38.238281 25.273438 37.746094 25.265625 37.242188 C 25.269531 37.082031 25.304688 36.925781 25.367188 36.773438 C 25.433594 36.625 25.523438 36.492188 25.636719 36.375 C 25.753906 36.261719 25.886719 36.171875 26.039062 36.105469 C 26.1875 36.042969 26.34375 36.007812 26.507812 36.003906 C 26.675781 35.996094 26.835938 36.023438 26.992188 36.082031 C 27.148438 36.144531 27.285156 36.234375 27.40625 36.351562 C 27.523438 36.46875 27.613281 36.605469 27.671875 36.761719 C 27.734375 36.917969 27.761719 37.078125 27.753906 37.242188 C 27.746094 37.539062 27.792969 37.820312 27.898438 38.09375 C 28.003906 38.371094 28.160156 38.613281 28.363281 38.824219 C 28.566406 39.035156 28.804688 39.199219 29.078125 39.3125 C 29.347656 39.429688 29.632812 39.484375 29.925781 39.484375 C 30.222656 39.484375 30.503906 39.429688 30.777344 39.3125 C 31.046875 39.199219 31.285156 39.035156 31.492188 38.824219 C 31.695312 38.613281 31.851562 38.371094 31.957031 38.09375 C 32.0625 37.820312 32.109375 37.539062 32.101562 37.242188 L 32.101562 35.96875 C 32.101562 35.679688 32.046875 35.402344 31.9375 35.136719 C 31.828125 34.871094 31.671875 34.636719 31.464844 34.433594 C 31.261719 34.230469 31.027344 34.074219 30.757812 33.964844 C 30.492188 33.855469 30.214844 33.800781 29.925781 33.804688 C 29.621094 33.800781 29.320312 33.765625 29.023438 33.707031 C 28.722656 33.644531 28.433594 33.554688 28.15625 33.433594 C 27.875 33.316406 27.605469 33.171875 27.355469 33.003906 C 27.101562 32.835938 26.867188 32.644531 26.652344 32.429688 C 26.4375 32.214844 26.246094 31.980469 26.074219 31.730469 C 25.90625 31.476562 25.761719 31.210938 25.640625 30.933594 C 25.523438 30.652344 25.433594 30.367188 25.371094 30.070312 C 25.308594 29.773438 25.277344 29.472656 25.273438 29.167969 L 25.273438 27.953125 C 25.277344 27.449219 25.359375 26.957031 25.523438 26.480469 C 25.6875 26.003906 25.925781 25.5625 26.234375 25.164062 C 26.542969 24.765625 26.90625 24.421875 27.328125 24.140625 C 27.746094 23.859375 28.199219 23.652344 28.6875 23.515625 L 28.6875 22.636719 C 28.691406 22.472656 28.726562 22.316406 28.789062 22.167969 C 28.855469 22.015625 28.945312 21.882812 29.0625 21.769531 C 29.175781 21.652344 29.308594 21.5625 29.460938 21.5 C 29.609375 21.433594 29.769531 21.398438 29.929688 21.394531 C 30.097656 21.390625 30.261719 21.414062 30.414062 21.476562 C 30.570312 21.539062 30.707031 21.625 30.828125 21.746094 C 30.945312 21.863281 31.035156 22 31.097656 22.152344 C 31.15625 22.308594 31.183594 22.46875 31.175781 22.636719 L 31.175781 23.507812 C 31.664062 23.644531 32.121094 23.851562 32.539062 24.132812 C 32.960938 24.414062 33.324219 24.753906 33.632812 25.15625 C 33.941406 25.554688 34.175781 25.996094 34.339844 26.472656 C 34.507812 26.949219 34.589844 27.4375 34.59375 27.945312 C 34.597656 28.109375 34.566406 28.265625 34.503906 28.417969 C 34.441406 28.570312 34.351562 28.703125 34.234375 28.820312 C 34.117188 28.933594 33.980469 29.019531 33.828125 29.078125 C 33.671875 29.140625 33.511719 29.167969 33.347656 29.160156 C 33.1875 29.15625 33.03125 29.121094 32.882812 29.058594 C 32.734375 28.996094 32.601562 28.90625 32.488281 28.792969 C 32.371094 28.679688 32.28125 28.550781 32.214844 28.40625 C 32.148438 28.257812 32.113281 28.105469 32.105469 27.945312 C 32.09375 27.664062 32.03125 27.394531 31.917969 27.140625 C 31.804688 26.882812 31.644531 26.65625 31.441406 26.460938 C 31.238281 26.265625 31.007812 26.117188 30.746094 26.011719 C 30.484375 25.90625 30.214844 25.855469 29.933594 25.855469 C 29.652344 25.855469 29.378906 25.90625 29.117188 26.011719 C 28.859375 26.117188 28.625 26.265625 28.421875 26.460938 C 28.21875 26.65625 28.0625 26.882812 27.949219 27.140625 C 27.832031 27.394531 27.769531 27.664062 27.761719 27.945312 L 27.761719 29.160156 C 27.757812 29.449219 27.8125 29.730469 27.921875 30 C 28.027344 30.269531 28.183594 30.507812 28.390625 30.714844 C 28.59375 30.925781 28.828125 31.085938 29.09375 31.203125 C 29.363281 31.316406 29.644531 31.378906 29.933594 31.382812 Z M 29.933594 31.382812 " fill-opacity="1" fill-rule="nonzero"/><g clip-path="url(#8133fa261a)"><path fill="#fdfdfd" d="M 59.058594 25.386719 L 30.820312 0.320312 C 30.574219 0.125 30.296875 0.0234375 29.980469 0.0234375 C 29.664062 0.0234375 29.382812 0.125 29.136719 0.320312 L 0.8125 25.390625 C 0.644531 25.582031 0.539062 25.800781 0.496094 26.046875 C 0.449219 26.292969 0.472656 26.535156 0.5625 26.769531 C 0.640625 27.019531 0.789062 27.210938 1.003906 27.355469 C 1.222656 27.496094 1.457031 27.554688 1.71875 27.527344 L 8.308594 27.527344 L 8.308594 55.847656 C 8.308594 56.011719 8.339844 56.167969 8.402344 56.316406 C 8.46875 56.464844 8.558594 56.59375 8.675781 56.707031 C 8.792969 56.816406 8.929688 56.902344 9.082031 56.957031 C 9.234375 57.011719 9.390625 57.039062 9.554688 57.03125 L 50.4375 57.03125 C 50.59375 57.027344 50.75 56.996094 50.898438 56.9375 C 51.042969 56.878906 51.175781 56.792969 51.292969 56.683594 C 51.40625 56.574219 51.5 56.445312 51.566406 56.304688 C 51.632812 56.160156 51.671875 56.007812 51.679688 55.847656 L 51.679688 27.527344 L 58.273438 27.527344 C 58.527344 27.527344 58.757812 27.460938 58.96875 27.320312 C 59.179688 27.183594 59.335938 27 59.433594 26.769531 C 59.527344 26.523438 59.542969 26.273438 59.472656 26.019531 C 59.402344 25.761719 59.265625 25.554688 59.058594 25.386719 Z M 29.929688 47.914062 C 28.917969 47.914062 27.921875 47.8125 26.929688 47.613281 C 25.941406 47.414062 24.980469 47.121094 24.050781 46.730469 C 23.117188 46.34375 22.234375 45.871094 21.394531 45.308594 C 20.558594 44.75 19.78125 44.113281 19.070312 43.398438 C 18.359375 42.6875 17.722656 41.910156 17.164062 41.074219 C 16.605469 40.238281 16.132812 39.355469 15.75 38.425781 C 15.363281 37.496094 15.074219 36.535156 14.878906 35.550781 C 14.683594 34.5625 14.585938 33.566406 14.589844 32.5625 C 14.589844 31.554688 14.691406 30.5625 14.886719 29.574219 C 15.085938 28.589844 15.378906 27.632812 15.765625 26.703125 C 16.152344 25.773438 16.628906 24.890625 17.191406 24.058594 C 17.75 23.222656 18.390625 22.449219 19.105469 21.738281 C 19.816406 21.027344 20.59375 20.394531 21.433594 19.835938 C 22.273438 19.277344 23.160156 18.804688 24.09375 18.421875 C 25.027344 18.035156 25.988281 17.746094 26.976562 17.550781 C 27.96875 17.355469 28.96875 17.253906 29.976562 17.253906 C 30.984375 17.253906 31.984375 17.351562 32.976562 17.550781 C 33.964844 17.746094 34.925781 18.035156 35.859375 18.417969 C 36.792969 18.804688 37.679688 19.273438 38.519531 19.832031 C 39.359375 20.390625 40.136719 21.023438 40.851562 21.734375 C 41.566406 22.445312 42.203125 23.21875 42.765625 24.054688 C 43.328125 24.890625 43.800781 25.769531 44.1875 26.699219 C 44.574219 27.628906 44.867188 28.585938 45.066406 29.570312 C 45.265625 30.558594 45.367188 31.550781 45.367188 32.558594 C 45.367188 33.566406 45.269531 34.566406 45.070312 35.554688 C 44.871094 36.546875 44.578125 37.507812 44.1875 38.4375 C 43.800781 39.371094 43.324219 40.253906 42.761719 41.09375 C 42.199219 41.933594 41.558594 42.707031 40.839844 43.421875 C 40.125 44.136719 39.34375 44.773438 38.503906 45.332031 C 37.660156 45.890625 36.769531 46.363281 35.832031 46.75 C 34.898438 47.136719 33.933594 47.425781 32.9375 47.621094 C 31.945312 47.820312 30.941406 47.917969 29.929688 47.914062 Z M 29.929688 47.914062 " fill-opacity="1" fill-rule="nonzero"/></g></svg>