<svg xmlns="http://www.w3.org/2000/svg" xmlns:xlink="http://www.w3.org/1999/xlink" width="40" zoomAndPan="magnify" viewBox="0 0 30 30.000001" height="40" preserveAspectRatio="xMidYMid meet" version="1.0"><defs><clipPath id="f3d3b10367"><path d="M 2.917969 11.429688 L 29.515625 11.429688 L 29.515625 17.601562 L 2.917969 17.601562 Z M 2.917969 11.429688 " clip-rule="nonzero"/></clipPath><clipPath id="f1055c5489"><path d="M 0.484375 12.464844 L 5.046875 12.464844 L 5.046875 17.03125 L 0.484375 17.03125 Z M 0.484375 12.464844 " clip-rule="nonzero"/></clipPath><clipPath id="0b9fa72808"><path d="M 2.765625 12.464844 L 5.046875 14.75 L 2.765625 17.03125 L 0.484375 14.75 L 2.765625 12.464844 " clip-rule="nonzero"/></clipPath><clipPath id="87696ef2f6"><path d="M 0.484375 12.464844 L 4.839844 12.464844 L 4.839844 16.820312 L 0.484375 16.820312 Z M 0.484375 12.464844 " clip-rule="nonzero"/></clipPath><clipPath id="3480af2b51"><path d="M 2.660156 12.464844 L 4.839844 14.644531 L 2.660156 16.820312 L 0.484375 14.644531 L 2.660156 12.464844 " clip-rule="nonzero"/></clipPath></defs><g clip-path="url(#f3d3b10367)"><path fill="#9b9b9b" d="M 2.917969 11.429688 L 29.445312 11.429688 L 29.445312 17.714844 L 2.917969 17.714844 Z M 2.917969 11.429688 " fill-opacity="1" fill-rule="nonzero"/></g><g clip-path="url(#f1055c5489)"><g clip-path="url(#0b9fa72808)"><path fill="#000000" d="M 0.484375 12.464844 L 5.046875 12.464844 L 5.046875 17.03125 L 0.484375 17.03125 Z M 0.484375 12.464844 " fill-opacity="1" fill-rule="nonzero"/></g></g><g clip-path="url(#87696ef2f6)"><g clip-path="url(#3480af2b51)"><path stroke-linecap="butt" transform="matrix(0.693308, 0, 0, 0.693308, 0.48387, 12.466224)" fill="none" stroke-linejoin="miter" d="M 3.13899 -0.00199045 L 6.282887 3.141906 L 3.13899 6.280169 L 0.000727694 3.141906 L 3.13899 -0.00199045 " stroke="#171717" stroke-width="2" stroke-opacity="1" stroke-miterlimit="4"/></g></g></svg>