<svg xmlns="http://www.w3.org/2000/svg" xmlns:xlink="http://www.w3.org/1999/xlink" width="80" zoomAndPan="magnify" viewBox="0 0 60 60" height="80" preserveAspectRatio="xMidYMid meet" version="1.0"><defs><clipPath id="86e1234d1a"><path d="M 0 48 L 14 48 L 14 54.28125 L 0 54.28125 Z M 0 48 " clip-rule="nonzero"/></clipPath><clipPath id="a8a8a83858"><path d="M 29 48 L 43 48 L 43 54.28125 L 29 54.28125 Z M 29 48 " clip-rule="nonzero"/></clipPath></defs><path fill="#fdfdfd" d="M 0 33.699219 L 0 39.460938 L 13.21875 39.460938 L 13.21875 33.699219 L 0 33.699219 " fill-opacity="1" fill-rule="nonzero"/><path fill="#fdfdfd" d="M 14.871094 33.699219 L 14.871094 39.460938 L 28.09375 39.460938 L 28.09375 33.699219 L 14.871094 33.699219 " fill-opacity="1" fill-rule="nonzero"/><path fill="#fdfdfd" d="M 29.746094 33.699219 L 29.746094 39.460938 L 42.964844 39.460938 L 42.964844 33.699219 L 29.746094 33.699219 " fill-opacity="1" fill-rule="nonzero"/><path fill="#fdfdfd" d="M 44.617188 33.699219 L 44.617188 39.460938 L 57.839844 39.460938 L 57.839844 33.699219 L 44.617188 33.699219 " fill-opacity="1" fill-rule="nonzero"/><path fill="#fdfdfd" d="M 7.433594 26.292969 L 7.433594 32.054688 L 20.65625 32.054688 L 20.65625 26.292969 L 7.433594 26.292969 " fill-opacity="1" fill-rule="nonzero"/><path fill="#fdfdfd" d="M 22.308594 26.292969 L 22.308594 32.054688 L 35.53125 32.054688 L 35.53125 26.292969 L 22.308594 26.292969 " fill-opacity="1" fill-rule="nonzero"/><path fill="#fdfdfd" d="M 37.183594 26.292969 L 37.183594 32.054688 L 50.402344 32.054688 L 50.402344 26.292969 L 37.183594 26.292969 " fill-opacity="1" fill-rule="nonzero"/><path fill="#fdfdfd" d="M 37.183594 41.109375 L 37.183594 46.871094 L 50.402344 46.871094 L 50.402344 41.109375 L 37.183594 41.109375 " fill-opacity="1" fill-rule="nonzero"/><path fill="#fdfdfd" d="M 22.308594 41.109375 L 22.308594 46.871094 L 35.53125 46.871094 L 35.53125 41.109375 L 22.308594 41.109375 " fill-opacity="1" fill-rule="nonzero"/><path fill="#fdfdfd" d="M 7.433594 41.109375 L 7.433594 46.871094 L 20.65625 46.871094 L 20.65625 41.109375 L 7.433594 41.109375 " fill-opacity="1" fill-rule="nonzero"/><g clip-path="url(#86e1234d1a)"><path fill="#fdfdfd" d="M 0 48.515625 L 0 54.277344 L 13.21875 54.277344 L 13.21875 48.515625 L 0 48.515625 " fill-opacity="1" fill-rule="nonzero"/></g><g clip-path="url(#a8a8a83858)"><path fill="#fdfdfd" d="M 29.746094 48.515625 L 29.746094 54.277344 L 42.964844 54.277344 L 42.964844 48.515625 L 29.746094 48.515625 " fill-opacity="1" fill-rule="nonzero"/></g><path fill="#fdfdfd" d="M 14.871094 18.882812 L 14.871094 24.644531 L 28.09375 24.644531 L 28.09375 18.882812 L 14.871094 18.882812 " fill-opacity="1" fill-rule="nonzero"/><path fill="#fdfdfd" d="M 42.414062 20.570312 L 39.425781 8.683594 C 38.847656 6.378906 40.011719 5.539062 42.027344 6.8125 L 52.421875 13.367188 C 54.4375 14.640625 54.664062 16.6875 52.921875 17.941406 L 50.175781 19.914062 L 51.03125 21.09375 L 53.75 22.144531 L 54.554688 23.257812 C 55.1875 23.050781 55.832031 23.183594 56.164062 23.640625 L 59.5625 28.320312 C 59.996094 28.921875 59.722656 29.863281 58.949219 30.417969 C 58.179688 30.976562 57.195312 30.941406 56.757812 30.339844 L 53.363281 25.65625 C 53.03125 25.199219 53.109375 24.546875 53.507812 24.015625 L 52.921875 23.210938 L 50.203125 22.160156 L 49.125 20.671875 C 48.550781 21.085938 47.640625 21.742188 46.613281 22.480469 C 44.875 23.734375 42.992188 22.878906 42.414062 20.570312 " fill-opacity="1" fill-rule="nonzero"/></svg>