<svg xmlns="http://www.w3.org/2000/svg" xmlns:xlink="http://www.w3.org/1999/xlink" width="80" zoomAndPan="magnify" viewBox="0 0 60 60" height="80" preserveAspectRatio="xMidYMid meet" version="1.0"><defs><clipPath id="32cc95c1e1"><path d="M 0 3.601562 L 60 3.601562 L 60 56.101562 L 0 56.101562 Z M 0 3.601562 " clip-rule="nonzero"/></clipPath></defs><g clip-path="url(#32cc95c1e1)"><path fill="#ffffff" d="M 56.898438 25.527344 L 56.898438 17.285156 L 44.78125 3.617188 L 15.515625 3.617188 L 15.515625 46.824219 L 1.035156 46.824219 C 0.464844 46.824219 0 47.289062 0 47.851562 C 0 52.390625 3.710938 56.082031 8.277344 56.082031 L 47.585938 56.082031 L 47.585938 56.019531 C 47.921875 56.058594 48.273438 56.082031 48.621094 56.082031 C 53.183594 56.082031 56.898438 52.390625 56.898438 47.851562 L 56.898438 39.3125 C 58.796875 37.617188 60 35.160156 60 32.421875 C 60 29.683594 58.796875 27.226562 56.898438 25.527344 Z M 45.347656 7.5 C 46.304688 8.605469 47.625 10.136719 49.28125 12.054688 C 50.871094 13.878906 52.472656 15.71875 53.585938 16.992188 L 47.675781 16.992188 C 46.398438 16.992188 45.347656 15.949219 45.347656 14.675781 Z M 8.277344 54.027344 C 5.210938 54.027344 2.652344 51.800781 2.160156 48.882812 L 40.410156 48.882812 C 40.667969 50.925781 41.675781 52.726562 43.152344 54.027344 Z M 54.828125 47.851562 C 54.828125 51.261719 52.046875 54.027344 48.621094 54.027344 C 45.195312 54.027344 42.414062 51.261719 42.414062 47.851562 C 42.414062 47.289062 41.949219 46.824219 41.378906 46.824219 L 17.585938 46.824219 L 17.585938 5.675781 L 43.28125 5.675781 L 43.28125 14.675781 C 43.28125 17.09375 45.257812 19.046875 47.675781 19.046875 L 54.828125 19.046875 L 54.828125 24.128906 C 53.585938 23.511719 52.175781 23.164062 50.691406 23.164062 C 45.554688 23.164062 41.378906 27.316406 41.378906 32.421875 C 41.378906 37.527344 45.554688 41.679688 50.691406 41.679688 C 52.175781 41.679688 53.585938 41.332031 54.828125 40.714844 Z M 50.691406 39.625 C 46.695312 39.625 43.449219 36.394531 43.449219 32.421875 C 43.449219 28.449219 46.695312 25.21875 50.691406 25.21875 C 54.683594 25.21875 57.929688 28.449219 57.929688 32.421875 C 57.929688 36.394531 54.683594 39.625 50.691406 39.625 Z M 50.691406 39.625 " fill-opacity="1" fill-rule="nonzero"/></g><path fill="#ffffff" d="M 21.722656 15.960938 L 41.378906 15.960938 L 41.378906 18.019531 L 21.722656 18.019531 Z M 21.722656 15.960938 " fill-opacity="1" fill-rule="nonzero"/><path fill="#ffffff" d="M 21.722656 23.164062 L 41.378906 23.164062 L 41.378906 25.21875 L 21.722656 25.21875 Z M 21.722656 23.164062 " fill-opacity="1" fill-rule="nonzero"/><path fill="#ffffff" d="M 21.722656 30.363281 L 38.277344 30.363281 L 38.277344 32.421875 L 21.722656 32.421875 Z M 21.722656 30.363281 " fill-opacity="1" fill-rule="nonzero"/><path fill="#ffffff" d="M 21.722656 37.566406 L 41.378906 37.566406 L 41.378906 39.625 L 21.722656 39.625 Z M 21.722656 37.566406 " fill-opacity="1" fill-rule="nonzero"/><path fill="#ffffff" d="M 51.851562 27.816406 L 51.851562 26.980469 C 51.851562 26.582031 51.53125 26.261719 51.128906 26.261719 C 50.726562 26.261719 50.40625 26.582031 50.40625 26.980469 L 50.40625 27.816406 C 49.359375 28.140625 48.632812 29.089844 48.632812 30.195312 C 48.632812 31.25 49.226562 32.203125 50.171875 32.679688 L 51.179688 33.179688 C 51.789062 33.488281 52.175781 34.09375 52.175781 34.773438 C 52.175781 35.171875 51.957031 35.519531 51.609375 35.699219 C 51.324219 35.84375 50.972656 35.84375 50.675781 35.699219 C 50.328125 35.519531 50.109375 35.171875 50.109375 34.773438 C 50.109375 34.375 49.785156 34.054688 49.382812 34.054688 C 48.984375 34.054688 48.660156 34.375 48.660156 34.773438 L 48.660156 34.980469 C 48.660156 35.058594 48.671875 35.136719 48.699219 35.210938 C 48.828125 35.984375 49.320312 36.652344 50.042969 37 C 50.171875 37.0625 50.300781 37.117188 50.429688 37.152344 L 50.429688 37.875 C 50.429688 38.273438 50.753906 38.59375 51.15625 38.59375 C 51.554688 38.59375 51.878906 38.273438 51.878906 37.875 L 51.878906 37.152344 C 52.007812 37.117188 52.136719 37.0625 52.265625 37 C 53.121094 36.574219 53.652344 35.726562 53.652344 34.773438 C 53.652344 33.539062 52.964844 32.433594 51.851562 31.882812 L 50.84375 31.378906 C 50.390625 31.148438 50.109375 30.699219 50.109375 30.195312 C 50.109375 29.722656 50.429688 29.308594 50.898438 29.195312 C 51.066406 29.15625 51.234375 29.15625 51.402344 29.195312 C 51.867188 29.308594 52.191406 29.722656 52.191406 30.195312 L 52.191406 30.621094 C 52.191406 31.019531 52.511719 31.339844 52.914062 31.339844 C 53.316406 31.339844 53.636719 31.019531 53.636719 30.621094 L 53.636719 30.195312 C 53.625 29.089844 52.902344 28.125 51.851562 27.816406 Z M 51.851562 27.816406 " fill-opacity="1" fill-rule="nonzero"/></svg>