<svg xmlns="http://www.w3.org/2000/svg" xmlns:xlink="http://www.w3.org/1999/xlink" width="80" zoomAndPan="magnify" viewBox="0 0 60 60" height="80" preserveAspectRatio="xMidYMid meet" version="1.0"><defs><clipPath id="f1642ce086"><path d="M 0 0 L 46 0 L 46 59.25 L 0 59.25 Z M 0 0 " clip-rule="nonzero"/></clipPath></defs><path fill="#ffffff" d="M 32.578125 48.601562 L 16.78125 48.601562 C 16.269531 48.601562 15.851562 49.019531 15.851562 49.527344 C 15.851562 50.039062 16.269531 50.453125 16.78125 50.453125 L 33.089844 50.453125 C 32.765625 49.898438 32.578125 49.25 32.578125 48.601562 Z M 32.578125 48.601562 " fill-opacity="1" fill-rule="nonzero"/><path fill="#ffffff" d="M 11.761719 10.738281 C 11.34375 10.414062 10.789062 10.507812 10.460938 10.925781 L 8.1875 13.933594 L 7.164062 13.007812 C 6.792969 12.683594 6.1875 12.683594 5.863281 13.054688 C 5.539062 13.425781 5.539062 14.027344 5.910156 14.351562 L 7.675781 15.96875 C 7.859375 16.109375 8.09375 16.203125 8.324219 16.203125 C 8.371094 16.203125 8.371094 16.203125 8.417969 16.203125 C 8.695312 16.15625 8.929688 16.0625 9.070312 15.832031 L 11.949219 11.988281 C 12.273438 11.664062 12.179688 11.0625 11.761719 10.738281 Z M 11.761719 10.738281 " fill-opacity="1" fill-rule="nonzero"/><path fill="#ffffff" d="M 39.082031 8.796875 L 16.78125 8.796875 C 16.269531 8.796875 15.851562 9.210938 15.851562 9.722656 C 15.851562 10.230469 16.269531 10.648438 16.78125 10.648438 L 39.082031 10.648438 C 39.59375 10.648438 40.011719 10.230469 40.011719 9.722656 C 40.011719 9.210938 39.59375 8.796875 39.082031 8.796875 Z M 39.082031 8.796875 " fill-opacity="1" fill-rule="nonzero"/><path fill="#ffffff" d="M 39.082031 12.5 L 16.78125 12.5 C 16.269531 12.5 15.851562 12.914062 15.851562 13.425781 C 15.851562 13.933594 16.269531 14.351562 16.78125 14.351562 L 39.082031 14.351562 C 39.59375 14.351562 40.011719 13.933594 40.011719 13.425781 C 40.011719 12.914062 39.59375 12.5 39.082031 12.5 Z M 39.082031 12.5 " fill-opacity="1" fill-rule="nonzero"/><path fill="#ffffff" d="M 39.082031 16.203125 L 16.78125 16.203125 C 16.269531 16.203125 15.851562 16.617188 15.851562 17.128906 C 15.851562 17.636719 16.269531 18.054688 16.78125 18.054688 L 39.082031 18.054688 C 39.59375 18.054688 40.011719 17.636719 40.011719 17.128906 C 40.011719 16.617188 39.59375 16.203125 39.082031 16.203125 Z M 39.082031 16.203125 " fill-opacity="1" fill-rule="nonzero"/><path fill="#ffffff" d="M 40.011719 25.921875 C 40.011719 25.414062 39.59375 24.996094 39.082031 24.996094 L 16.78125 24.996094 C 16.269531 24.996094 15.851562 25.414062 15.851562 25.921875 C 15.851562 26.429688 16.269531 26.847656 16.78125 26.847656 L 39.082031 26.847656 C 39.59375 26.847656 40.011719 26.429688 40.011719 25.921875 Z M 40.011719 25.921875 " fill-opacity="1" fill-rule="nonzero"/><path fill="#ffffff" d="M 11.761719 26.941406 C 11.34375 26.617188 10.789062 26.707031 10.460938 27.125 L 8.1875 30.132812 L 7.164062 29.207031 C 6.792969 28.882812 6.1875 28.882812 5.863281 29.253906 C 5.539062 29.625 5.539062 30.226562 5.910156 30.550781 L 7.675781 32.171875 C 7.859375 32.308594 8.09375 32.402344 8.324219 32.402344 C 8.371094 32.402344 8.371094 32.402344 8.417969 32.402344 C 8.695312 32.355469 8.929688 32.261719 9.070312 32.03125 L 11.949219 28.191406 C 12.273438 27.867188 12.179688 27.265625 11.761719 26.941406 Z M 11.761719 26.941406 " fill-opacity="1" fill-rule="nonzero"/><path fill="#ffffff" d="M 11.390625 43.328125 C 11.019531 42.957031 10.460938 42.957031 10.089844 43.328125 L 8.882812 44.53125 L 7.675781 43.328125 C 7.304688 42.957031 6.746094 42.957031 6.375 43.328125 C 6 43.695312 6 44.253906 6.375 44.621094 L 7.582031 45.824219 L 6.375 47.03125 C 6 47.398438 6 47.957031 6.375 48.324219 C 6.558594 48.511719 6.792969 48.601562 7.023438 48.601562 C 7.257812 48.601562 7.488281 48.511719 7.675781 48.324219 L 8.882812 47.121094 L 10.089844 48.324219 C 10.277344 48.511719 10.507812 48.601562 10.742188 48.601562 C 10.972656 48.601562 11.207031 48.511719 11.390625 48.324219 C 11.761719 47.957031 11.761719 47.398438 11.390625 47.03125 L 10.183594 45.824219 L 11.390625 44.621094 C 11.761719 44.253906 11.761719 43.695312 11.390625 43.328125 Z M 11.390625 43.328125 " fill-opacity="1" fill-rule="nonzero"/><path fill="#ffffff" d="M 15.851562 45.824219 C 15.851562 46.335938 16.269531 46.75 16.78125 46.75 L 32.71875 46.75 L 32.859375 44.898438 L 16.78125 44.898438 C 16.269531 44.898438 15.851562 45.316406 15.851562 45.824219 Z M 15.851562 45.824219 " fill-opacity="1" fill-rule="nonzero"/><path fill="#ffffff" d="M 33.136719 41.195312 L 16.78125 41.195312 C 16.269531 41.195312 15.851562 41.613281 15.851562 42.121094 C 15.851562 42.632812 16.269531 43.046875 16.78125 43.046875 L 32.996094 43.046875 Z M 33.136719 41.195312 " fill-opacity="1" fill-rule="nonzero"/><path fill="#ffffff" d="M 36.992188 32.402344 L 16.78125 32.402344 C 16.269531 32.402344 15.851562 32.820312 15.851562 33.328125 C 15.851562 33.835938 16.269531 34.253906 16.78125 34.253906 L 36.015625 34.253906 Z M 36.992188 32.402344 " fill-opacity="1" fill-rule="nonzero"/><path fill="#ffffff" d="M 38.992188 28.699219 L 16.78125 28.699219 C 16.269531 28.699219 15.851562 29.117188 15.851562 29.625 C 15.851562 30.132812 16.269531 30.550781 16.78125 30.550781 L 38.015625 30.550781 Z M 38.992188 28.699219 " fill-opacity="1" fill-rule="nonzero"/><g clip-path="url(#f1642ce086)"><path fill="#ffffff" d="M 43.730469 47.492188 L 43.730469 55.546875 C 43.730469 56.566406 42.894531 57.398438 41.871094 57.398438 L 3.773438 57.398438 C 2.75 57.398438 1.914062 56.566406 1.914062 55.546875 L 1.914062 3.703125 C 1.914062 2.683594 2.75 1.851562 3.773438 1.851562 L 41.871094 1.851562 C 42.894531 1.851562 43.730469 2.683594 43.730469 3.703125 L 43.730469 19.90625 L 45.589844 16.433594 L 45.589844 3.703125 C 45.589844 1.667969 43.914062 0 41.871094 0 L 3.773438 0 C 1.726562 0 0.0546875 1.667969 0.0546875 3.703125 L 0.0546875 55.546875 C 0.0546875 57.582031 1.726562 59.25 3.773438 59.25 L 41.871094 59.25 C 43.914062 59.25 45.589844 57.582031 45.589844 55.546875 L 45.589844 46.011719 C 45.496094 46.105469 45.402344 46.195312 45.308594 46.289062 Z M 43.730469 47.492188 " fill-opacity="1" fill-rule="nonzero"/></g><path fill="#ffffff" d="M 58.039062 13.191406 C 58.039062 13.191406 53.859375 10.96875 53.859375 10.96875 C 52.464844 10.230469 50.746094 10.785156 50.046875 12.128906 L 35.226562 39.667969 C 35.179688 39.761719 35.132812 39.902344 35.132812 40.039062 L 34.4375 48.511719 C 34.4375 48.511719 34.4375 48.558594 34.4375 48.558594 C 34.390625 49.621094 35.273438 50.453125 36.296875 50.453125 C 36.714844 50.453125 37.132812 50.316406 37.457031 50.085938 C 37.457031 50.085938 44.148438 44.808594 44.148438 44.808594 C 44.242188 44.714844 44.332031 44.621094 44.378906 44.53125 L 59.203125 16.988281 C 59.945312 15.644531 59.386719 13.886719 58.039062 13.191406 Z M 36.296875 48.601562 L 36.851562 41.152344 L 42.335938 43.882812 Z M 43.449219 42.355469 L 37.503906 39.34375 L 47.820312 20.183594 L 53.8125 23.144531 Z M 57.574219 16.109375 L 54.648438 21.523438 L 48.65625 18.5625 L 51.628906 13.007812 C 51.859375 12.542969 52.464844 12.359375 52.929688 12.589844 L 57.109375 14.8125 C 57.34375 14.953125 57.484375 15.136719 57.574219 15.367188 C 57.714844 15.644531 57.667969 15.878906 57.574219 16.109375 Z M 57.574219 16.109375 " fill-opacity="1" fill-rule="nonzero"/></svg>