<svg xmlns="http://www.w3.org/2000/svg" xmlns:xlink="http://www.w3.org/1999/xlink" width="250" zoomAndPan="magnify" viewBox="0 0 187.5 60" height="80" preserveAspectRatio="xMidYMid meet" version="1.0"><defs><filter x="0%" y="0%" width="100%" height="100%" id="dd7449012d"><feColorMatrix values="0 0 0 0 1 0 0 0 0 1 0 0 0 0 1 0 0 0 1 0" color-interpolation-filters="sRGB"/></filter><g/><clipPath id="d787479da9"><path d="M 65.753906 16.277344 L 88.253906 16.277344 L 88.253906 38.777344 L 65.753906 38.777344 Z M 65.753906 16.277344 " clip-rule="nonzero"/></clipPath><mask id="d3d7f29d9a"><g filter="url(#dd7449012d)"><rect x="-18.75" width="225" fill="#000000" y="-6" height="72" fill-opacity="0.6392"/></g></mask><clipPath id="60493a0af9"><path d="M 12 4 L 88 4 L 88 17.878906 L 12 17.878906 Z M 12 4 " clip-rule="nonzero"/></clipPath><clipPath id="bf70bc137f"><path d="M 0.417969 0.628906 L 88.917969 0.628906 L 88.917969 15 L 0.417969 15 Z M 0.417969 0.628906 " clip-rule="nonzero"/></clipPath><clipPath id="36b32a01f9"><rect x="0" width="90" y="0" height="19"/></clipPath></defs><g clip-path="url(#d787479da9)"><path fill="#474649" d="M 74.105469 38.777344 L 79.898438 38.777344 L 79.898438 30.421875 L 88.253906 30.421875 L 88.253906 24.628906 L 79.898438 24.628906 L 79.898438 16.277344 L 74.105469 16.277344 L 74.105469 24.628906 L 65.753906 24.628906 L 65.753906 30.421875 L 74.105469 30.421875 Z M 74.105469 38.777344 " fill-opacity="1" fill-rule="nonzero"/></g><g mask="url(#d3d7f29d9a)"><g transform="matrix(1, 0, 0, 1, 96, 32)"><g clip-path="url(#36b32a01f9)"><g clip-path="url(#60493a0af9)"><path fill="#ff1616" d="M 87.1875 6.179688 C 86.828125 5.976562 86.828125 5.578125 86.648438 5.296875 C 86.40625 4.957031 86.066406 4.734375 85.667969 4.617188 C 85.308594 4.496094 85.007812 4.753906 84.6875 4.816406 C 83.847656 4.957031 83.109375 5.558594 82.226562 5.375 C 81.226562 5.175781 80.25 5.835938 79.25 5.476562 C 79.128906 5.4375 78.949219 5.535156 78.828125 5.597656 C 77.988281 5.976562 77.027344 5.757812 76.167969 6.117188 C 75.03125 5.835938 73.929688 6.4375 72.789062 6.339844 C 72.109375 6.277344 71.429688 6.558594 70.730469 6.597656 C 68.789062 6.757812 66.851562 7.019531 64.910156 7.121094 C 64.511719 7.140625 64.132812 7.28125 63.730469 7.378906 C 63.492188 7.441406 63.253906 7.539062 63.011719 7.558594 C 62.132812 7.679688 61.191406 7.441406 60.414062 8.042969 C 60.394531 8.0625 60.3125 8.019531 60.273438 8.042969 C 59.113281 8.320312 57.875 8.261719 56.753906 8.722656 C 56.574219 8.800781 56.355469 8.78125 56.152344 8.800781 C 54.414062 9.023438 52.636719 9.144531 50.933594 9.605469 C 50.734375 9.664062 50.535156 9.722656 50.335938 9.703125 C 49.414062 9.625 48.554688 9.945312 47.675781 10.105469 C 47.234375 10.183594 46.777344 10.285156 46.335938 10.304688 C 45.597656 10.34375 44.816406 10.226562 44.175781 10.785156 C 44.058594 10.886719 43.796875 10.886719 43.597656 10.867188 C 42.578125 10.824219 41.597656 11.027344 40.636719 11.308594 C 40.296875 11.40625 39.957031 11.546875 39.617188 11.546875 C 38.71875 11.546875 37.859375 11.746094 36.957031 11.929688 C 35.578125 12.207031 34.199219 12.507812 32.800781 12.667969 C 31.101562 12.871094 29.5 13.449219 27.800781 13.632812 C 26.742188 13.75 25.660156 14.03125 24.601562 14.253906 C 22.78125 14.632812 20.960938 15.113281 19.144531 15.433594 C 17.503906 15.714844 15.964844 16.394531 14.324219 16.695312 C 13.746094 16.796875 13.183594 17.097656 12.644531 17.335938 C 12.523438 17.378906 12.425781 17.558594 12.523438 17.71875 C 12.585938 17.796875 12.683594 17.878906 12.746094 17.878906 C 13.542969 17.777344 14.34375 17.699219 15.144531 17.539062 C 17.023438 17.195312 18.882812 16.738281 20.78125 16.476562 C 22.664062 16.214844 24.523438 15.855469 26.402344 15.515625 C 27.140625 15.375 27.902344 15.355469 28.621094 15.132812 C 30.21875 14.671875 31.917969 14.773438 33.5 14.210938 C 33.578125 14.171875 33.699219 14.191406 33.800781 14.230469 C 34.460938 14.433594 35.078125 14.191406 35.71875 14.050781 C 36.5 13.871094 37.296875 13.75 38.097656 13.609375 C 39.039062 13.449219 39.996094 13.371094 40.9375 13.191406 C 42.15625 12.949219 43.417969 12.730469 44.636719 12.648438 C 46.316406 12.550781 47.894531 12.128906 49.535156 11.90625 C 50.234375 11.808594 50.875 11.425781 51.59375 11.585938 C 52.414062 11.167969 53.394531 11.566406 54.214844 11.046875 C 54.355469 10.964844 54.613281 11.027344 54.792969 11.046875 C 54.996094 11.066406 55.152344 11.105469 55.375 11.027344 C 56.714844 10.585938 58.113281 10.40625 59.53125 10.386719 C 59.933594 10.386719 60.332031 10.324219 60.734375 10.265625 C 61.914062 10.105469 63.050781 9.664062 64.273438 9.964844 C 64.351562 9.984375 64.472656 9.945312 64.550781 9.90625 C 65.53125 9.503906 66.589844 9.261719 67.609375 9.203125 C 68.691406 9.125 69.769531 8.640625 70.890625 9.042969 C 70.96875 9.0625 71.089844 9.023438 71.171875 8.984375 C 72.671875 8.542969 74.230469 8.480469 75.789062 8.441406 C 76.050781 8.441406 76.328125 8.480469 76.527344 8.382812 C 77.167969 8.082031 77.828125 8.222656 78.546875 8.160156 C 78.929688 8.382812 79.367188 8.203125 79.828125 8.140625 C 81.667969 7.941406 83.46875 7.621094 85.285156 7.339844 C 86.046875 7.21875 86.605469 6.917969 87.1875 6.519531 C 87.207031 6.457031 87.328125 6.257812 87.1875 6.179688 Z M 87.1875 6.179688 " fill-opacity="1" fill-rule="nonzero"/></g><g clip-path="url(#bf70bc137f)"><path fill="#ff1616" d="M 88.644531 1.269531 C 88.566406 0.929688 88.125 0.628906 87.707031 0.648438 C 87.644531 0.648438 87.605469 0.628906 87.546875 0.648438 C 86.585938 1.007812 85.566406 0.96875 84.566406 1.070312 C 82.90625 1.230469 81.347656 1.871094 79.648438 1.769531 C 78.867188 1.730469 78.027344 1.949219 77.25 2.152344 C 76.429688 2.351562 75.589844 2.191406 74.730469 2.410156 C 73.371094 2.753906 71.949219 2.8125 70.550781 2.992188 C 70.011719 3.074219 69.492188 3.273438 68.929688 3.3125 C 67.53125 3.394531 66.113281 3.511719 64.730469 3.773438 C 63.210938 4.074219 61.671875 4.214844 60.152344 4.394531 C 58.753906 4.554688 57.375 4.914062 55.953125 4.816406 C 53.972656 5.496094 51.835938 5.054688 49.835938 5.675781 C 48.316406 5.617188 46.835938 5.957031 45.335938 6.179688 C 43.597656 6.4375 41.835938 6.699219 40.097656 6.878906 C 37.9375 7.097656 35.800781 7.5 33.640625 7.699219 C 32.78125 7.78125 31.941406 7.921875 31.101562 8.0625 C 29.859375 8.28125 28.640625 8.601562 27.382812 8.78125 C 24.382812 9.183594 21.402344 9.785156 18.421875 10.34375 C 15.605469 10.867188 12.785156 11.507812 9.964844 12.066406 C 8.324219 12.390625 6.667969 12.648438 5.066406 13.128906 C 3.546875 13.25 2.148438 13.75 0.765625 14.351562 C 0.648438 14.414062 0.609375 14.492188 0.667969 14.59375 C 0.707031 14.652344 0.828125 14.734375 0.886719 14.710938 C 2.289062 14.351562 3.6875 13.992188 5.085938 13.632812 C 6.425781 13.351562 7.746094 13.050781 9.085938 12.808594 C 12.164062 12.25 15.265625 11.789062 18.34375 11.167969 C 21.503906 10.527344 24.703125 10.125 27.902344 9.5625 C 30.179688 9.164062 32.480469 8.84375 34.777344 8.5625 C 37.578125 8.222656 40.398438 7.921875 43.21875 7.640625 C 44.917969 7.460938 46.636719 7.378906 48.335938 7.160156 C 50.277344 6.898438 52.234375 6.898438 54.15625 6.4375 C 54.253906 6.417969 54.355469 6.417969 54.453125 6.417969 C 55.554688 6.398438 56.675781 6.519531 57.753906 6.136719 C 57.972656 6.058594 58.253906 6.136719 58.511719 6.117188 C 58.914062 6.097656 59.332031 6.097656 59.714844 6.019531 C 61.394531 5.636719 63.09375 5.457031 64.792969 5.316406 C 66.25 5.195312 67.710938 5.074219 69.152344 4.816406 C 70.53125 4.554688 71.949219 4.375 73.371094 4.355469 C 74.789062 4.355469 76.070312 3.574219 77.488281 3.832031 C 77.570312 3.855469 77.6875 3.773438 77.789062 3.753906 C 79.367188 3.414062 80.949219 3.191406 82.546875 3.113281 C 84.265625 3.03125 85.945312 2.652344 87.644531 2.472656 C 87.746094 2.453125 87.847656 2.429688 87.945312 2.410156 C 88.386719 2.210938 88.726562 1.648438 88.644531 1.269531 Z M 88.644531 1.269531 " fill-opacity="1" fill-rule="nonzero"/></g></g></g></g><g fill="#ffffff" fill-opacity="1"><g transform="translate(9.6, 24.546402)"><g><path d="M 5.074219 -6.792969 L 5.074219 -2.648438 L 2.097656 -6.792969 L 0.777344 -6.792969 L 0.777344 0 L 2.210938 0 L 2.210938 -4.242188 L 5.289062 0 L 6.519531 0 L 6.519531 -6.792969 Z M 5.074219 -6.792969 "/></g></g></g><g fill="#ffffff" fill-opacity="1"><g transform="translate(16.895746, 24.546402)"><g><path d="M 3.996094 0.15625 C 6.066406 0.15625 7.609375 -1.367188 7.609375 -3.394531 C 7.609375 -5.414062 6.066406 -6.9375 3.996094 -6.9375 C 1.921875 -6.9375 0.367188 -5.40625 0.367188 -3.394531 C 0.367188 -1.378906 1.921875 0.15625 3.996094 0.15625 Z M 3.996094 -1.230469 C 2.785156 -1.230469 1.863281 -2.171875 1.863281 -3.394531 C 1.863281 -4.617188 2.785156 -5.550781 3.996094 -5.550781 C 5.210938 -5.550781 6.113281 -4.628906 6.113281 -3.394531 C 6.113281 -2.164062 5.210938 -1.230469 3.996094 -1.230469 Z M 3.996094 -1.230469 "/></g></g></g><g fill="#ffffff" fill-opacity="1"><g transform="translate(24.880318, 24.546402)"><g><path d="M 3.027344 0.136719 C 4.433594 0.136719 5.597656 -0.574219 5.597656 -2.039062 C 5.597656 -3.5625 4.296875 -3.882812 3.269531 -4.144531 C 2.542969 -4.316406 1.960938 -4.464844 1.960938 -4.9375 C 1.960938 -5.386719 2.4375 -5.589844 2.910156 -5.589844 C 3.464844 -5.589844 3.949219 -5.316406 3.949219 -4.726562 L 5.394531 -4.726562 C 5.394531 -6.085938 4.511719 -6.917969 2.949219 -6.917969 C 1.445312 -6.917969 0.484375 -6.179688 0.484375 -4.882812 C 0.484375 -3.414062 1.726562 -3.113281 2.753906 -2.863281 C 3.492188 -2.699219 4.113281 -2.550781 4.113281 -2.019531 C 4.113281 -1.515625 3.570312 -1.222656 3.019531 -1.222656 C 2.417969 -1.222656 1.871094 -1.542969 1.871094 -2.191406 L 0.386719 -2.191406 C 0.386719 -0.738281 1.464844 0.136719 3.027344 0.136719 Z M 3.027344 0.136719 "/></g></g></g><g fill="#ffffff" fill-opacity="1"><g transform="translate(30.885731, 24.546402)"><g><path d="M 3.027344 0.136719 C 4.433594 0.136719 5.597656 -0.574219 5.597656 -2.039062 C 5.597656 -3.5625 4.296875 -3.882812 3.269531 -4.144531 C 2.542969 -4.316406 1.960938 -4.464844 1.960938 -4.9375 C 1.960938 -5.386719 2.4375 -5.589844 2.910156 -5.589844 C 3.464844 -5.589844 3.949219 -5.316406 3.949219 -4.726562 L 5.394531 -4.726562 C 5.394531 -6.085938 4.511719 -6.917969 2.949219 -6.917969 C 1.445312 -6.917969 0.484375 -6.179688 0.484375 -4.882812 C 0.484375 -3.414062 1.726562 -3.113281 2.753906 -2.863281 C 3.492188 -2.699219 4.113281 -2.550781 4.113281 -2.019531 C 4.113281 -1.515625 3.570312 -1.222656 3.019531 -1.222656 C 2.417969 -1.222656 1.871094 -1.542969 1.871094 -2.191406 L 0.386719 -2.191406 C 0.386719 -0.738281 1.464844 0.136719 3.027344 0.136719 Z M 3.027344 0.136719 "/></g></g></g><g fill="#ffffff" fill-opacity="1"><g transform="translate(36.891143, 24.546402)"><g><path d="M 3.996094 0.15625 C 6.066406 0.15625 7.609375 -1.367188 7.609375 -3.394531 C 7.609375 -5.414062 6.066406 -6.9375 3.996094 -6.9375 C 1.921875 -6.9375 0.367188 -5.40625 0.367188 -3.394531 C 0.367188 -1.378906 1.921875 0.15625 3.996094 0.15625 Z M 3.996094 -1.230469 C 2.785156 -1.230469 1.863281 -2.171875 1.863281 -3.394531 C 1.863281 -4.617188 2.785156 -5.550781 3.996094 -5.550781 C 5.210938 -5.550781 6.113281 -4.628906 6.113281 -3.394531 C 6.113281 -2.164062 5.210938 -1.230469 3.996094 -1.230469 Z M 3.996094 -1.230469 "/></g></g></g><g fill="#ffffff" fill-opacity="1"><g transform="translate(44.875715, 24.546402)"><g><path d="M 3.027344 0.136719 C 4.433594 0.136719 5.597656 -0.574219 5.597656 -2.039062 C 5.597656 -3.5625 4.296875 -3.882812 3.269531 -4.144531 C 2.542969 -4.316406 1.960938 -4.464844 1.960938 -4.9375 C 1.960938 -5.386719 2.4375 -5.589844 2.910156 -5.589844 C 3.464844 -5.589844 3.949219 -5.316406 3.949219 -4.726562 L 5.394531 -4.726562 C 5.394531 -6.085938 4.511719 -6.917969 2.949219 -6.917969 C 1.445312 -6.917969 0.484375 -6.179688 0.484375 -4.882812 C 0.484375 -3.414062 1.726562 -3.113281 2.753906 -2.863281 C 3.492188 -2.699219 4.113281 -2.550781 4.113281 -2.019531 C 4.113281 -1.515625 3.570312 -1.222656 3.019531 -1.222656 C 2.417969 -1.222656 1.871094 -1.542969 1.871094 -2.191406 L 0.386719 -2.191406 C 0.386719 -0.738281 1.464844 0.136719 3.027344 0.136719 Z M 3.027344 0.136719 "/></g></g></g><g fill="#ffffff" fill-opacity="1"><g transform="translate(9.6, 33.545133)"><g><path d="M 3.386719 -6.792969 L 0.777344 -6.792969 L 0.777344 0 L 2.242188 0 L 2.242188 -2.117188 L 3.386719 -2.117188 C 4.753906 -2.117188 5.785156 -3.113281 5.785156 -4.453125 C 5.785156 -5.792969 4.746094 -6.792969 3.386719 -6.792969 Z M 3.320312 -3.472656 L 2.242188 -3.472656 L 2.242188 -5.425781 L 3.320312 -5.425781 C 3.902344 -5.425781 4.296875 -5.015625 4.296875 -4.453125 C 4.296875 -3.890625 3.902344 -3.472656 3.320312 -3.472656 Z M 3.320312 -3.472656 "/></g></g></g><g fill="#ffffff" fill-opacity="1"><g transform="translate(15.63451, 33.545133)"><g><path d="M 4.511719 0 L 6.152344 0 L 4.648438 -2.5625 C 5.40625 -2.929688 5.890625 -3.648438 5.890625 -4.542969 C 5.890625 -5.851562 4.871094 -6.792969 3.511719 -6.792969 L 0.777344 -6.792969 L 0.777344 0 L 2.242188 0 L 2.242188 -2.308594 L 3.183594 -2.308594 Z M 2.242188 -5.433594 L 3.414062 -5.433594 C 4.035156 -5.433594 4.394531 -5.054688 4.394531 -4.550781 C 4.394531 -4.035156 4.035156 -3.667969 3.414062 -3.667969 L 2.242188 -3.667969 Z M 2.242188 -5.433594 "/></g></g></g><g fill="#ffffff" fill-opacity="1"><g transform="translate(22.04739, 33.545133)"><g><path d="M 3.996094 0.15625 C 6.066406 0.15625 7.609375 -1.367188 7.609375 -3.394531 C 7.609375 -5.414062 6.066406 -6.9375 3.996094 -6.9375 C 1.921875 -6.9375 0.367188 -5.40625 0.367188 -3.394531 C 0.367188 -1.378906 1.921875 0.15625 3.996094 0.15625 Z M 3.996094 -1.230469 C 2.785156 -1.230469 1.863281 -2.171875 1.863281 -3.394531 C 1.863281 -4.617188 2.785156 -5.550781 3.996094 -5.550781 C 5.210938 -5.550781 6.113281 -4.628906 6.113281 -3.394531 C 6.113281 -2.164062 5.210938 -1.230469 3.996094 -1.230469 Z M 3.996094 -1.230469 "/></g></g></g><g fill="#ffffff" fill-opacity="1"><g transform="translate(30.031962, 33.545133)"><g><path d="M 2.71875 0.15625 C 4.203125 0.15625 5.183594 -0.875 5.183594 -2.308594 L 5.183594 -6.792969 L 3.734375 -6.792969 L 3.734375 -2.386719 C 3.734375 -1.679688 3.320312 -1.230469 2.71875 -1.230469 C 2.085938 -1.230469 1.667969 -1.6875 1.667969 -2.386719 L 1.667969 -2.5625 L 0.214844 -2.5625 L 0.214844 -2.308594 C 0.214844 -0.875 1.261719 0.15625 2.71875 0.15625 Z M 2.71875 0.15625 "/></g></g></g><g fill="#ffffff" fill-opacity="1"><g transform="translate(35.940353, 33.545133)"><g><path d="M 2.242188 -1.359375 L 2.242188 -2.753906 L 4.597656 -2.753906 L 4.597656 -4.085938 L 2.242188 -4.085938 L 2.242188 -5.433594 L 4.851562 -5.433594 L 4.851562 -6.792969 L 0.777344 -6.792969 L 0.777344 0 L 4.957031 0 L 4.957031 -1.359375 Z M 2.242188 -1.359375 "/></g></g></g><g fill="#ffffff" fill-opacity="1"><g transform="translate(41.363653, 33.545133)"><g><path d="M 5.453125 -6.792969 L 0.203125 -6.792969 L 0.203125 -5.425781 L 2.097656 -5.425781 L 2.097656 0 L 3.5625 0 L 3.5625 -5.425781 L 5.453125 -5.425781 Z M 5.453125 -6.792969 "/></g></g></g><g fill="#ffffff" fill-opacity="1"><g transform="translate(47.029498, 33.545133)"><g><path d="M 3.996094 0.15625 C 6.066406 0.15625 7.609375 -1.367188 7.609375 -3.394531 C 7.609375 -5.414062 6.066406 -6.9375 3.996094 -6.9375 C 1.921875 -6.9375 0.367188 -5.40625 0.367188 -3.394531 C 0.367188 -1.378906 1.921875 0.15625 3.996094 0.15625 Z M 3.996094 -1.230469 C 2.785156 -1.230469 1.863281 -2.171875 1.863281 -3.394531 C 1.863281 -4.617188 2.785156 -5.550781 3.996094 -5.550781 C 5.210938 -5.550781 6.113281 -4.628906 6.113281 -3.394531 C 6.113281 -2.164062 5.210938 -1.230469 3.996094 -1.230469 Z M 3.996094 -1.230469 "/></g></g></g><g fill="#ffffff" fill-opacity="1"><g transform="translate(55.01407, 33.545133)"><g><path d="M 3.027344 0.136719 C 4.433594 0.136719 5.597656 -0.574219 5.597656 -2.039062 C 5.597656 -3.5625 4.296875 -3.882812 3.269531 -4.144531 C 2.542969 -4.316406 1.960938 -4.464844 1.960938 -4.9375 C 1.960938 -5.386719 2.4375 -5.589844 2.910156 -5.589844 C 3.464844 -5.589844 3.949219 -5.316406 3.949219 -4.726562 L 5.394531 -4.726562 C 5.394531 -6.085938 4.511719 -6.917969 2.949219 -6.917969 C 1.445312 -6.917969 0.484375 -6.179688 0.484375 -4.882812 C 0.484375 -3.414062 1.726562 -3.113281 2.753906 -2.863281 C 3.492188 -2.699219 4.113281 -2.550781 4.113281 -2.019531 C 4.113281 -1.515625 3.570312 -1.222656 3.019531 -1.222656 C 2.417969 -1.222656 1.871094 -1.542969 1.871094 -2.191406 L 0.386719 -2.191406 C 0.386719 -0.738281 1.464844 0.136719 3.027344 0.136719 Z M 3.027344 0.136719 "/></g></g></g><g fill="#ffffff" fill-opacity="1"><g transform="translate(96.4168, 27.737457)"><g><path d="M 0.382812 -7.480469 L 0.382812 -6.0625 L 1.542969 -6.0625 L 1.542969 0 L 3.128906 0 L 3.128906 -7.480469 Z M 0.382812 -7.480469 "/></g></g></g><g fill="#ffffff" fill-opacity="1"><g transform="translate(100.466258, 27.737457)"><g><path d="M 3.554688 0.136719 C 5.421875 0.136719 6.589844 -1.359375 6.589844 -3.746094 C 6.589844 -6.128906 5.433594 -7.613281 3.554688 -7.613281 C 1.6875 -7.613281 0.527344 -6.128906 0.527344 -3.746094 C 0.527344 -1.359375 1.699219 0.136719 3.554688 0.136719 Z M 3.554688 -1.359375 C 2.644531 -1.359375 2.148438 -2.203125 2.148438 -3.746094 C 2.148438 -5.277344 2.644531 -6.117188 3.554688 -6.117188 C 4.464844 -6.117188 4.972656 -5.265625 4.972656 -3.734375 C 4.972656 -2.195312 4.476562 -1.359375 3.554688 -1.359375 Z M 3.554688 -1.359375 "/></g></g></g><g fill="#ffffff" fill-opacity="1"><g transform="translate(107.597805, 27.737457)"><g><path d="M 0.664062 0 L 2.40625 0 L 2.40625 -1.753906 L 0.664062 -1.753906 Z M 0.664062 0 "/></g></g></g><g fill="#ffffff" fill-opacity="1"><g transform="translate(110.679893, 27.737457)"><g><path d="M 3.554688 0.136719 C 5.421875 0.136719 6.589844 -1.359375 6.589844 -3.746094 C 6.589844 -6.128906 5.433594 -7.613281 3.554688 -7.613281 C 1.6875 -7.613281 0.527344 -6.128906 0.527344 -3.746094 C 0.527344 -1.359375 1.699219 0.136719 3.554688 0.136719 Z M 3.554688 -1.359375 C 2.644531 -1.359375 2.148438 -2.203125 2.148438 -3.746094 C 2.148438 -5.277344 2.644531 -6.117188 3.554688 -6.117188 C 4.464844 -6.117188 4.972656 -5.265625 4.972656 -3.734375 C 4.972656 -2.195312 4.476562 -1.359375 3.554688 -1.359375 Z M 3.554688 -1.359375 "/></g></g></g><g fill="#ffffff" fill-opacity="1"><g transform="translate(117.81144, 27.737457)"><g><path d="M 3.554688 0.136719 C 5.421875 0.136719 6.589844 -1.359375 6.589844 -3.746094 C 6.589844 -6.128906 5.433594 -7.613281 3.554688 -7.613281 C 1.6875 -7.613281 0.527344 -6.128906 0.527344 -3.746094 C 0.527344 -1.359375 1.699219 0.136719 3.554688 0.136719 Z M 3.554688 -1.359375 C 2.644531 -1.359375 2.148438 -2.203125 2.148438 -3.746094 C 2.148438 -5.277344 2.644531 -6.117188 3.554688 -6.117188 C 4.464844 -6.117188 4.972656 -5.265625 4.972656 -3.734375 C 4.972656 -2.195312 4.476562 -1.359375 3.554688 -1.359375 Z M 3.554688 -1.359375 "/></g></g></g><g fill="#ffffff" fill-opacity="1"><g transform="translate(124.942987, 27.737457)"><g><path d="M 3.554688 0.136719 C 5.421875 0.136719 6.589844 -1.359375 6.589844 -3.746094 C 6.589844 -6.128906 5.433594 -7.613281 3.554688 -7.613281 C 1.6875 -7.613281 0.527344 -6.128906 0.527344 -3.746094 C 0.527344 -1.359375 1.699219 0.136719 3.554688 0.136719 Z M 3.554688 -1.359375 C 2.644531 -1.359375 2.148438 -2.203125 2.148438 -3.746094 C 2.148438 -5.277344 2.644531 -6.117188 3.554688 -6.117188 C 4.464844 -6.117188 4.972656 -5.265625 4.972656 -3.734375 C 4.972656 -2.195312 4.476562 -1.359375 3.554688 -1.359375 Z M 3.554688 -1.359375 "/></g></g></g><g fill="#ffffff" fill-opacity="1"><g transform="translate(132.074534, 27.737457)"><g/></g></g><g fill="#ffffff" fill-opacity="1"><g transform="translate(134.762921, 27.737457)"><g><path d="M 7.695312 -6.210938 C 6.917969 -6.210938 6.230469 -5.828125 5.816406 -5.242188 C 5.457031 -5.847656 4.824219 -6.210938 4.050781 -6.210938 C 3.328125 -6.210938 2.664062 -5.859375 2.238281 -5.320312 L 1.933594 -6.074219 L 0.789062 -6.074219 L 0.789062 0 L 2.429688 0 L 2.429688 -3.285156 C 2.429688 -4.230469 2.867188 -4.769531 3.609375 -4.769531 C 4.195312 -4.769531 4.511719 -4.34375 4.511719 -3.53125 L 4.511719 0 L 6.109375 0 L 6.109375 -3.285156 C 6.109375 -4.230469 6.546875 -4.769531 7.277344 -4.769531 C 7.875 -4.769531 8.1875 -4.34375 8.1875 -3.53125 L 8.1875 0 L 9.832031 0 L 9.832031 -3.800781 C 9.832031 -5.230469 8.953125 -6.210938 7.695312 -6.210938 Z M 7.695312 -6.210938 "/></g></g></g><g fill="#ffffff" fill-opacity="1"><g transform="translate(145.314006, 27.737457)"><g><path d="M 3.859375 -4.6875 L 0.296875 -4.6875 L 0.296875 -5.609375 L 1.53125 -6.8125 C 1.863281 -7.132812 2.09375 -7.382812 2.21875 -7.5625 C 2.34375 -7.738281 2.40625 -7.925781 2.40625 -8.125 C 2.40625 -8.257812 2.359375 -8.363281 2.265625 -8.4375 C 2.179688 -8.507812 2.066406 -8.546875 1.921875 -8.546875 C 1.628906 -8.546875 1.300781 -8.382812 0.9375 -8.0625 L 0.265625 -8.90625 C 0.492188 -9.113281 0.753906 -9.28125 1.046875 -9.40625 C 1.347656 -9.539062 1.703125 -9.609375 2.109375 -9.609375 C 2.585938 -9.609375 2.972656 -9.488281 3.265625 -9.25 C 3.566406 -9.019531 3.71875 -8.679688 3.71875 -8.234375 C 3.71875 -7.898438 3.625 -7.59375 3.4375 -7.3125 C 3.25 -7.03125 2.9375 -6.691406 2.5 -6.296875 L 1.921875 -5.78125 L 3.859375 -5.78125 Z M 3.859375 -4.6875 "/></g></g></g><g fill="#ffffff" fill-opacity="1"><g transform="translate(96.4168, 37.486082)"><g><path d="M 3.609375 0.179688 C 5.195312 0.179688 6.445312 -0.855469 6.726562 -2.382812 L 5.074219 -2.382812 C 4.792969 -1.730469 4.273438 -1.371094 3.609375 -1.371094 C 2.734375 -1.371094 2.046875 -2.101562 2.046875 -3.035156 C 2.046875 -3.980469 2.722656 -4.703125 3.609375 -4.703125 C 4.261719 -4.703125 4.8125 -4.34375 5.074219 -3.746094 L 6.703125 -3.746094 C 6.410156 -5.242188 5.195312 -6.242188 3.621094 -6.242188 C 1.777344 -6.242188 0.382812 -4.871094 0.382812 -3.046875 C 0.382812 -1.226562 1.777344 0.179688 3.609375 0.179688 Z M 3.609375 0.179688 "/></g></g></g><g fill="#ffffff" fill-opacity="1"><g transform="translate(103.447103, 37.486082)"><g><path d="M 3.667969 0.179688 C 5.546875 0.179688 6.953125 -1.203125 6.953125 -3.035156 C 6.953125 -4.871094 5.546875 -6.242188 3.667969 -6.242188 C 1.789062 -6.242188 0.382812 -4.871094 0.382812 -3.035156 C 0.382812 -1.203125 1.789062 0.179688 3.667969 0.179688 Z M 3.667969 -1.371094 C 2.722656 -1.371094 2.046875 -2.046875 2.046875 -3.035156 C 2.046875 -4.015625 2.722656 -4.703125 3.667969 -4.703125 C 4.613281 -4.703125 5.285156 -4.015625 5.285156 -3.035156 C 5.285156 -2.046875 4.613281 -1.371094 3.667969 -1.371094 Z M 3.667969 -1.371094 "/></g></g></g><g fill="#ffffff" fill-opacity="1"><g transform="translate(110.792373, 37.486082)"><g><path d="M 4.242188 -6.210938 C 3.417969 -6.210938 2.6875 -5.859375 2.226562 -5.320312 L 1.914062 -6.074219 L 0.789062 -6.074219 L 0.789062 0 L 2.429688 0 L 2.429688 -3.183594 C 2.429688 -4.160156 2.945312 -4.769531 3.789062 -4.769531 C 4.5 -4.769531 4.847656 -4.332031 4.847656 -3.410156 L 4.847656 0 L 6.492188 0 L 6.492188 -3.679688 C 6.492188 -5.21875 5.625 -6.210938 4.242188 -6.210938 Z M 4.242188 -6.210938 "/></g></g></g><g fill="#ffffff" fill-opacity="1"><g transform="translate(118.002655, 37.486082)"><g><path d="M 2.9375 0.179688 C 4.476562 0.179688 5.488281 -0.628906 5.488281 -1.867188 C 5.488281 -3.351562 4.21875 -3.554688 3.226562 -3.734375 C 2.597656 -3.847656 2.082031 -3.949219 2.082031 -4.351562 C 2.082031 -4.703125 2.382812 -4.925781 2.890625 -4.925781 C 3.464844 -4.925781 3.800781 -4.691406 3.8125 -4.207031 L 5.375 -4.207031 C 5.367188 -5.421875 4.398438 -6.242188 2.9375 -6.242188 C 1.472656 -6.242188 0.496094 -5.445312 0.496094 -4.296875 C 0.496094 -2.867188 1.730469 -2.609375 2.699219 -2.441406 C 3.339844 -2.339844 3.871094 -2.214844 3.871094 -1.800781 C 3.871094 -1.394531 3.453125 -1.179688 3.003906 -1.179688 C 2.417969 -1.179688 2.003906 -1.449219 1.992188 -1.992188 L 0.394531 -1.992188 C 0.394531 -0.699219 1.417969 0.179688 2.9375 0.179688 Z M 2.9375 0.179688 "/></g></g></g><g fill="#ffffff" fill-opacity="1"><g transform="translate(123.908118, 37.486082)"><g><path d="M 3.757812 -1.460938 C 3.148438 -1.460938 2.8125 -1.800781 2.8125 -2.382812 L 2.8125 -4.746094 L 4.464844 -4.746094 L 4.464844 -6.074219 L 2.789062 -6.074219 L 2.789062 -7.648438 L 2.476562 -7.648438 L 0.078125 -5.105469 L 0.078125 -4.746094 L 1.167969 -4.746094 L 1.167969 -2.160156 C 1.167969 -0.820312 1.992188 0 3.328125 0 L 4.5 0 L 4.5 -1.460938 Z M 3.757812 -1.460938 "/></g></g></g><g fill="#ffffff" fill-opacity="1"><g transform="translate(128.744967, 37.486082)"><g><path d="M 3.890625 -6.109375 C 3.105469 -6.109375 2.566406 -5.859375 2.125 -5.320312 L 1.832031 -6.074219 L 0.789062 -6.074219 L 0.789062 0 L 2.429688 0 L 2.429688 -3.148438 C 2.429688 -4.140625 2.789062 -4.554688 3.710938 -4.554688 L 4.433594 -4.554688 L 4.433594 -6.109375 Z M 3.890625 -6.109375 "/></g></g></g><g fill="#ffffff" fill-opacity="1"><g transform="translate(133.323102, 37.486082)"><g><path d="M 3.554688 0.179688 C 5.277344 0.179688 6.410156 -0.921875 6.410156 -2.566406 L 6.410156 -6.074219 L 4.769531 -6.074219 L 4.769531 -2.746094 C 4.769531 -1.890625 4.320312 -1.371094 3.554688 -1.371094 C 2.800781 -1.371094 2.339844 -1.878906 2.339844 -2.746094 L 2.339844 -6.074219 L 0.699219 -6.074219 L 0.699219 -2.566406 C 0.699219 -0.921875 1.84375 0.179688 3.554688 0.179688 Z M 3.554688 0.179688 "/></g></g></g><g fill="#ffffff" fill-opacity="1"><g transform="translate(140.443401, 37.486082)"><g><path d="M 0.898438 -6.738281 L 2.160156 -6.738281 L 3.046875 -8.449219 L 1.339844 -8.449219 Z M 0.789062 0 L 2.429688 0 L 2.429688 -6.074219 L 0.789062 -6.074219 Z M 0.789062 0 "/></g></g></g><g fill="#ffffff" fill-opacity="1"><g transform="translate(143.660465, 37.486082)"><g><path d="M 5.242188 -8.257812 L 5.242188 -5.738281 C 4.769531 -6.0625 4.207031 -6.242188 3.578125 -6.242188 C 1.730469 -6.242188 0.382812 -4.871094 0.382812 -3.027344 C 0.382812 -1.191406 1.730469 0.191406 3.578125 0.191406 C 4.320312 0.191406 4.972656 -0.0664062 5.476562 -0.496094 L 5.667969 0.0117188 L 6.882812 0.0117188 L 6.882812 -8.257812 Z M 3.710938 -1.359375 C 2.757812 -1.359375 2.058594 -2.082031 2.058594 -3.027344 C 2.058594 -3.980469 2.757812 -4.691406 3.710938 -4.691406 C 4.667969 -4.691406 5.367188 -3.980469 5.367188 -3.027344 C 5.367188 -2.082031 4.667969 -1.359375 3.710938 -1.359375 Z M 3.710938 -1.359375 "/></g></g></g><g fill="#ffffff" fill-opacity="1"><g transform="translate(151.343185, 37.486082)"><g><path d="M 3.667969 0.179688 C 5.546875 0.179688 6.953125 -1.203125 6.953125 -3.035156 C 6.953125 -4.871094 5.546875 -6.242188 3.667969 -6.242188 C 1.789062 -6.242188 0.382812 -4.871094 0.382812 -3.035156 C 0.382812 -1.203125 1.789062 0.179688 3.667969 0.179688 Z M 3.667969 -1.371094 C 2.722656 -1.371094 2.046875 -2.046875 2.046875 -3.035156 C 2.046875 -4.015625 2.722656 -4.703125 3.667969 -4.703125 C 4.613281 -4.703125 5.285156 -4.015625 5.285156 -3.035156 C 5.285156 -2.046875 4.613281 -1.371094 3.667969 -1.371094 Z M 3.667969 -1.371094 "/></g></g></g><g fill="#ffffff" fill-opacity="1"><g transform="translate(158.688454, 37.486082)"><g><path d="M 2.9375 0.179688 C 4.476562 0.179688 5.488281 -0.628906 5.488281 -1.867188 C 5.488281 -3.351562 4.21875 -3.554688 3.226562 -3.734375 C 2.597656 -3.847656 2.082031 -3.949219 2.082031 -4.351562 C 2.082031 -4.703125 2.382812 -4.925781 2.890625 -4.925781 C 3.464844 -4.925781 3.800781 -4.691406 3.8125 -4.207031 L 5.375 -4.207031 C 5.367188 -5.421875 4.398438 -6.242188 2.9375 -6.242188 C 1.472656 -6.242188 0.496094 -5.445312 0.496094 -4.296875 C 0.496094 -2.867188 1.730469 -2.609375 2.699219 -2.441406 C 3.339844 -2.339844 3.871094 -2.214844 3.871094 -1.800781 C 3.871094 -1.394531 3.453125 -1.179688 3.003906 -1.179688 C 2.417969 -1.179688 2.003906 -1.449219 1.992188 -1.992188 L 0.394531 -1.992188 C 0.394531 -0.699219 1.417969 0.179688 2.9375 0.179688 Z M 2.9375 0.179688 "/></g></g></g></svg>