<svg xmlns="http://www.w3.org/2000/svg" xmlns:xlink="http://www.w3.org/1999/xlink" width="80" zoomAndPan="magnify" viewBox="0 0 60 60" height="80" preserveAspectRatio="xMidYMid meet" version="1.0"><defs><clipPath id="f0f8cc2d32"><path d="M 8.699219 0 L 53 0 L 53 60 L 8.699219 60 Z M 8.699219 0 " clip-rule="nonzero"/></clipPath><clipPath id="317ce0c4a9"><path d="M 56 0 L 56.699219 0 L 56.699219 60 L 56 60 Z M 56 0 " clip-rule="nonzero"/></clipPath><clipPath id="d98ad8fee6"><path d="M 19.117188 16.074219 L 42.128906 16.074219 L 42.128906 39.085938 L 19.117188 39.085938 Z M 19.117188 16.074219 " clip-rule="nonzero"/></clipPath><clipPath id="2a4747896f"><path d="M 30.621094 16.074219 C 24.269531 16.074219 19.117188 21.226562 19.117188 27.578125 C 19.117188 33.933594 24.269531 39.085938 30.621094 39.085938 C 36.976562 39.085938 42.128906 33.933594 42.128906 27.578125 C 42.128906 21.226562 36.976562 16.074219 30.621094 16.074219 " clip-rule="nonzero"/></clipPath><clipPath id="59e9610cb5"><path d="M 24.183594 17.734375 L 37.683594 17.734375 L 37.683594 37.984375 L 24.183594 37.984375 Z M 24.183594 17.734375 " clip-rule="nonzero"/></clipPath></defs><g clip-path="url(#f0f8cc2d32)"><path fill="#ffffff" d="M 52.601562 10.699219 L 52.601562 10.601562 C 52.5 10.5 52.5 10.398438 52.398438 10.300781 L 42.398438 0.300781 C 42.300781 0.199219 42.199219 0.199219 42.101562 0.101562 L 42 0.101562 C 41.898438 0.101562 41.800781 0 41.699219 0 L 9.699219 0 C 9.101562 0 8.699219 0.398438 8.699219 1 L 8.699219 59 C 8.699219 59.601562 9.101562 60 9.699219 60 L 51.699219 60 C 52.300781 60 52.699219 59.601562 52.699219 59 L 52.699219 11 C 52.699219 10.898438 52.699219 10.800781 52.601562 10.699219 Z M 49.300781 10 L 42.699219 10 L 42.699219 3.398438 Z M 31.699219 58 L 31.699219 54 L 33.699219 54 C 34.300781 54 34.699219 53.601562 34.699219 53 L 34.699219 49 L 35.699219 49 C 36.300781 49 36.699219 48.601562 36.699219 48 L 36.699219 40.601562 C 41.601562 38.300781 44.699219 33.398438 44.699219 28 C 44.699219 20.300781 38.398438 14 30.699219 14 C 23 14 16.699219 20.300781 16.699219 28 C 16.699219 33.398438 19.800781 38.300781 24.699219 40.601562 L 24.699219 48 C 24.699219 48.601562 25.101562 49 25.699219 49 L 26.699219 49 L 26.699219 53 C 26.699219 53.601562 27.101562 54 27.699219 54 L 29.699219 54 L 29.699219 58 L 10.699219 58 L 10.699219 2 L 40.699219 2 L 40.699219 11 C 40.699219 11.601562 41.101562 12 41.699219 12 L 50.699219 12 L 50.699219 58 Z M 26.699219 43 C 26.699219 41.5 26.699219 40 26.699219 40 C 26.699219 39.601562 26.5 39.300781 26.101562 39.101562 C 21.601562 37.199219 18.699219 32.800781 18.699219 28 C 18.699219 21.398438 24.101562 16 30.699219 16 C 37.300781 16 42.699219 21.398438 42.699219 28 C 42.699219 32.800781 39.800781 37.199219 35.300781 39.101562 C 34.898438 39.199219 34.699219 39.601562 34.699219 40 L 34.699219 47 L 26.699219 47 C 26.699219 47 26.699219 45.800781 26.699219 45 L 31.699219 45 L 31.699219 43 Z M 28.699219 49 L 32.699219 49 L 32.699219 52 L 28.699219 52 Z M 28.699219 49 " fill-opacity="1" fill-rule="nonzero"/></g><path fill="#ffffff" d="M 31.699219 26.398438 L 34.398438 23.699219 L 33 22.300781 L 30.699219 24.601562 L 28.398438 22.300781 L 27 23.699219 L 29.699219 26.398438 L 29.699219 37 L 31.699219 37 C 31.699219 37 31.699219 27.199219 31.699219 26.398438 Z M 31.699219 26.398438 " fill-opacity="1" fill-rule="nonzero"/><g clip-path="url(#317ce0c4a9)"><path fill="#ffffff" d="M 67.699219 0 L 61.699219 0 C 61.101562 0 60.699219 0.398438 60.699219 1 L 60.699219 5 L 57.699219 5 C 57.101562 5 56.699219 5.398438 56.699219 6 L 56.699219 36 L 58.699219 36 L 58.699219 7 L 60.699219 7 L 60.699219 50 C 60.699219 50.199219 60.800781 50.5 60.898438 50.601562 L 63.800781 59.300781 C 63.898438 59.699219 64.300781 60 64.699219 60 C 65.101562 60 65.5 59.699219 65.601562 59.300781 L 68.5 50.601562 C 68.601562 50.398438 68.699219 50.199219 68.699219 50 L 68.699219 1 C 68.699219 0.398438 68.300781 0 67.699219 0 Z M 62.699219 13 L 66.699219 13 L 66.699219 49 L 62.699219 49 Z M 62.699219 2 L 66.699219 2 L 66.699219 11 L 62.699219 11 Z M 64.699219 55.800781 L 63.101562 51 L 66.300781 51 Z M 64.699219 55.800781 " fill-opacity="1" fill-rule="nonzero"/></g><path fill="#ffffff" d="M 14.699219 5 L 19.699219 5 L 19.699219 7 L 14.699219 7 Z M 14.699219 5 " fill-opacity="1" fill-rule="nonzero"/><path fill="#ffffff" d="M 14.699219 9 L 27.699219 9 L 27.699219 11 L 14.699219 11 Z M 14.699219 9 " fill-opacity="1" fill-rule="nonzero"/><g clip-path="url(#d98ad8fee6)"><g clip-path="url(#2a4747896f)"><path fill="#171717" d="M 19.117188 16.074219 L 42.128906 16.074219 L 42.128906 39.085938 L 19.117188 39.085938 Z M 19.117188 16.074219 " fill-opacity="1" fill-rule="nonzero"/></g></g><g clip-path="url(#59e9610cb5)"><path fill="#ffffff" d="M 32.769531 17.792969 C 32.613281 17.722656 32.433594 17.769531 32.328125 17.902344 L 24.328125 28.425781 C 24.246094 28.535156 24.230469 28.679688 24.292969 28.804688 C 24.351562 28.925781 24.476562 29.003906 24.617188 29.003906 L 29.75 29.003906 L 27.21875 37.519531 C 27.171875 37.683594 27.242188 37.859375 27.394531 37.9375 C 27.449219 37.96875 27.507812 37.984375 27.566406 37.984375 C 27.667969 37.984375 27.773438 37.9375 27.84375 37.855469 L 37.53125 26.359375 C 37.621094 26.25 37.640625 26.101562 37.582031 25.972656 C 37.519531 25.84375 37.394531 25.761719 37.253906 25.761719 L 31.378906 25.761719 L 32.972656 18.195312 C 33.007812 18.03125 32.921875 17.863281 32.769531 17.792969 Z M 30.582031 26.050781 C 30.558594 26.15625 30.585938 26.265625 30.652344 26.351562 C 30.722656 26.433594 30.824219 26.484375 30.933594 26.484375 L 36.476562 26.484375 L 28.402344 36.0625 L 30.578125 28.746094 C 30.609375 28.636719 30.589844 28.519531 30.519531 28.429688 C 30.449219 28.335938 30.34375 28.285156 30.230469 28.285156 L 25.347656 28.285156 L 31.933594 19.621094 Z M 30.582031 26.050781 " fill-opacity="1" fill-rule="nonzero"/></g></svg>