<svg xmlns="http://www.w3.org/2000/svg" xmlns:xlink="http://www.w3.org/1999/xlink" width="80" zoomAndPan="magnify" viewBox="0 0 60 60" height="80" preserveAspectRatio="xMidYMid meet" version="1.0"><defs><clipPath id="351391923f"><path d="M 0 4.199219 L 60 4.199219 L 60 55.949219 L 0 55.949219 Z M 0 4.199219 " clip-rule="nonzero"/></clipPath><clipPath id="745079beeb"><path d="M 19.824219 13.085938 L 53.601562 13.085938 L 53.601562 52.769531 L 19.824219 52.769531 Z M 19.824219 13.085938 " clip-rule="nonzero"/></clipPath><clipPath id="bc86857ee8"><path d="M 18.273438 38 L 52 38 L 52 43 L 18.273438 43 Z M 18.273438 38 " clip-rule="nonzero"/></clipPath><clipPath id="979b773ec2"><path d="M 18.273438 45 L 52 45 L 52 49.726562 L 18.273438 49.726562 Z M 18.273438 45 " clip-rule="nonzero"/></clipPath><clipPath id="ca223dfba4"><path d="M 27 15.226562 L 43 15.226562 L 43 37 L 27 37 Z M 27 15.226562 " clip-rule="nonzero"/></clipPath></defs><path fill="#faf9f8" d="M 34.894531 48.363281 C 34.648438 48.363281 34.40625 48.234375 34.269531 48 C 34.074219 47.65625 34.191406 47.21875 34.535156 47.019531 L 46.121094 40.308594 L 46.121094 28.136719 L 35.25 34.429688 C 34.925781 34.621094 34.503906 34.523438 34.292969 34.203125 L 27.304688 23.644531 C 27.085938 23.316406 27.175781 22.867188 27.503906 22.648438 C 27.835938 22.429688 28.277344 22.519531 28.496094 22.851562 L 35.117188 32.847656 L 46.480469 26.269531 C 46.703125 26.140625 46.976562 26.140625 47.199219 26.269531 C 47.417969 26.398438 47.554688 26.632812 47.554688 26.890625 L 47.554688 40.726562 C 47.554688 40.980469 47.417969 41.21875 47.199219 41.347656 L 35.25 48.265625 C 35.140625 48.328125 35.015625 48.363281 34.894531 48.363281 " fill-opacity="1" fill-rule="nonzero"/><path fill="#faf9f8" d="M 34.890625 48.363281 C 34.769531 48.363281 34.648438 48.328125 34.535156 48.265625 L 22.589844 41.347656 C 22.367188 41.21875 22.230469 40.980469 22.230469 40.726562 L 22.230469 26.890625 C 22.230469 26.492188 22.550781 26.171875 22.949219 26.171875 C 23.34375 26.171875 23.667969 26.492188 23.667969 26.890625 L 23.667969 40.308594 L 35.25 47.019531 C 35.59375 47.21875 35.714844 47.65625 35.515625 48 C 35.382812 48.230469 35.140625 48.363281 34.890625 48.363281 " fill-opacity="1" fill-rule="nonzero"/><path fill="#faf9f8" d="M 22.949219 27.609375 C 22.730469 27.609375 22.507812 27.507812 22.371094 27.316406 C 22.136719 26.996094 22.203125 26.542969 22.523438 26.308594 L 27.476562 22.667969 C 27.796875 22.429688 28.246094 22.5 28.480469 22.820312 C 28.714844 23.140625 28.644531 23.589844 28.324219 23.828125 L 23.371094 27.472656 C 23.246094 27.566406 23.09375 27.609375 22.949219 27.609375 " fill-opacity="1" fill-rule="nonzero"/><path fill="#faf9f8" d="M 38.152344 36.917969 L 38.152344 40.101562 L 42.441406 37.617188 L 42.441406 34.429688 Z M 36.714844 42.59375 L 36.714844 36.085938 L 43.878906 31.9375 L 43.878906 38.445312 L 36.714844 42.59375 " fill-opacity="1" fill-rule="nonzero"/><path fill="#faf9f8" d="M 46.839844 27.609375 C 46.605469 27.609375 46.378906 27.496094 46.242188 27.289062 L 39.621094 17.289062 L 28.257812 23.871094 C 27.917969 24.070312 27.476562 23.953125 27.28125 23.609375 C 27.082031 23.265625 27.199219 22.824219 27.542969 22.625 L 40.070312 15.371094 L 47.4375 26.492188 C 47.65625 26.824219 47.566406 27.269531 47.234375 27.488281 C 47.113281 27.570312 46.976562 27.609375 46.839844 27.609375 " fill-opacity="1" fill-rule="nonzero"/><g clip-path="url(#351391923f)"><path fill="#faf9f8" d="M 59.859375 55.949219 L 6.96875 55.949219 C 3.203125 55.949219 0.140625 52.875 0.140625 49.097656 L 0.140625 10.238281 C 0.140625 6.910156 2.839844 4.199219 6.160156 4.199219 C 9.484375 4.199219 12.183594 6.910156 12.183594 10.238281 L 12.183594 49.746094 L 10.988281 48.691406 C 10.839844 48.558594 7.230469 45.449219 3.257812 47.382812 C 2.902344 47.554688 2.472656 47.40625 2.300781 47.046875 C 2.128906 46.6875 2.273438 46.257812 2.632812 46.085938 C 6.007812 44.441406 9.117188 45.757812 10.746094 46.757812 L 10.746094 10.238281 C 10.746094 7.703125 8.691406 5.640625 6.160156 5.640625 C 3.632812 5.640625 1.574219 7.703125 1.574219 10.238281 L 1.574219 49.097656 C 1.574219 52.082031 3.996094 54.511719 6.96875 54.511719 L 58.425781 54.511719 L 58.425781 11.175781 L 15.09375 11.175781 C 14.695312 11.175781 14.375 10.855469 14.375 10.457031 C 14.375 10.0625 14.695312 9.738281 15.09375 9.738281 L 59.859375 9.738281 L 59.859375 55.949219 " fill-opacity="1" fill-rule="nonzero"/></g><g clip-path="url(#745079beeb)"><path fill="#171717" d="M 19.824219 13.085938 L 54.457031 13.085938 L 54.457031 52.667969 L 19.824219 52.667969 Z M 19.824219 13.085938 " fill-opacity="1" fill-rule="nonzero"/></g><g clip-path="url(#bc86857ee8)"><path fill="#faf9f8" d="M 24.546875 42.851562 C 26.632812 42.851562 28.570312 42.179688 29.847656 41.058594 C 31.125 42.179688 33.0625 42.851562 35.148438 42.851562 C 37.234375 42.851562 39.171875 42.179688 40.449219 41.058594 C 41.726562 42.179688 43.664062 42.851562 45.75 42.851562 C 48.253906 42.851562 50.546875 41.886719 51.734375 40.332031 C 52.023438 39.957031 51.945312 39.425781 51.570312 39.144531 C 51.191406 38.863281 50.652344 38.9375 50.367188 39.308594 C 49.507812 40.429688 47.695312 41.15625 45.75 41.15625 C 43.804688 41.15625 41.992188 40.429688 41.132812 39.308594 C 40.972656 39.097656 40.71875 38.972656 40.449219 38.972656 C 40.179688 38.972656 39.929688 39.097656 39.765625 39.308594 C 38.90625 40.429688 37.09375 41.15625 35.148438 41.15625 C 33.203125 41.15625 31.390625 40.429688 30.53125 39.308594 C 30.207031 38.886719 29.488281 38.886719 29.164062 39.308594 C 28.304688 40.429688 26.492188 41.15625 24.546875 41.15625 C 22.601562 41.15625 20.789062 40.429688 19.929688 39.308594 C 19.644531 38.9375 19.105469 38.863281 18.730469 39.144531 C 18.351562 39.425781 18.277344 39.957031 18.5625 40.332031 C 19.75 41.886719 22.042969 42.851562 24.546875 42.851562 " fill-opacity="1" fill-rule="nonzero"/></g><g clip-path="url(#979b773ec2)"><path fill="#faf9f8" d="M 50.367188 46.179688 C 49.507812 47.300781 47.695312 48.027344 45.75 48.027344 C 43.804688 48.027344 41.992188 47.300781 41.132812 46.179688 C 40.972656 45.96875 40.71875 45.84375 40.449219 45.84375 C 40.179688 45.84375 39.929688 45.96875 39.765625 46.179688 C 38.90625 47.300781 37.09375 48.027344 35.148438 48.027344 C 33.203125 48.027344 31.390625 47.300781 30.53125 46.179688 C 30.207031 45.757812 29.488281 45.757812 29.164062 46.179688 C 28.304688 47.300781 26.492188 48.027344 24.546875 48.027344 C 22.601562 48.027344 20.789062 47.300781 19.929688 46.179688 C 19.644531 45.804688 19.105469 45.730469 18.730469 46.015625 C 18.351562 46.296875 18.277344 46.828125 18.5625 47.203125 C 19.75 48.753906 22.042969 49.71875 24.546875 49.71875 C 26.632812 49.71875 28.570312 49.050781 29.847656 47.929688 C 31.125 49.050781 33.0625 49.71875 35.148438 49.71875 C 37.234375 49.71875 39.171875 49.050781 40.449219 47.929688 C 41.726562 49.050781 43.664062 49.71875 45.75 49.71875 C 48.253906 49.71875 50.546875 48.753906 51.734375 47.203125 C 52.023438 46.828125 51.945312 46.296875 51.570312 46.015625 C 51.191406 45.734375 50.652344 45.804688 50.367188 46.179688 " fill-opacity="1" fill-rule="nonzero"/></g><g clip-path="url(#ca223dfba4)"><path fill="#faf9f8" d="M 29.953125 28.132812 C 30.332031 28.132812 30.640625 28.433594 30.640625 28.808594 C 30.640625 31.265625 32.664062 33.261719 35.148438 33.261719 C 35.527344 33.261719 35.835938 33.566406 35.835938 33.941406 C 35.835938 34.316406 35.527344 34.617188 35.148438 34.617188 C 31.90625 34.617188 29.265625 32.011719 29.265625 28.808594 C 29.265625 28.433594 29.574219 28.132812 29.953125 28.132812 Z M 35.148438 36.425781 C 39.40625 36.425781 42.863281 33.015625 42.863281 28.808594 C 42.863281 22.542969 35.148438 15.230469 35.148438 15.230469 C 35.148438 15.230469 27.4375 22.46875 27.4375 28.808594 C 27.4375 33.015625 30.886719 36.425781 35.148438 36.425781 " fill-opacity="1" fill-rule="nonzero"/></g></svg>