<svg xmlns="http://www.w3.org/2000/svg" xmlns:xlink="http://www.w3.org/1999/xlink" width="80" zoomAndPan="magnify" viewBox="0 0 60 60" height="80" preserveAspectRatio="xMidYMid meet" version="1.0"><path fill="#ffffff" d="M 51.914062 15.074219 L 51.914062 29.050781 L 53.910156 29.050781 L 53.910156 15.074219 L 51.914062 15.074219 " fill-opacity="1" fill-rule="nonzero"/><path fill="#ffffff" d="M 1.996094 12.078125 L 1.996094 6.089844 C 1.996094 4.988281 2.894531 4.09375 3.992188 4.09375 L 5.988281 4.09375 L 5.988281 44.027344 L 3.992188 44.027344 C 3.269531 44.027344 2.585938 44.222656 1.996094 44.5625 Z M 0.136719 49.003906 C 0.1875 49.195312 0.238281 49.386719 0.3125 49.5625 C 0.34375 49.632812 0.386719 49.695312 0.417969 49.761719 C 0.5 49.925781 0.578125 50.09375 0.679688 50.246094 C 0.96875 50.675781 1.339844 51.046875 1.765625 51.335938 C 1.910156 51.433594 2.066406 51.503906 2.222656 51.582031 C 2.296875 51.621094 2.367188 51.667969 2.449219 51.703125 C 2.621094 51.777344 2.808594 51.820312 2.992188 51.867188 C 3.0625 51.886719 3.128906 51.917969 3.199219 51.929688 C 3.457031 51.984375 3.722656 52.011719 3.992188 52.011719 L 30.949219 52.011719 L 30.949219 50.015625 L 3.992188 50.015625 C 3.855469 50.015625 3.722656 50 3.59375 49.976562 C 3.546875 49.964844 3.503906 49.945312 3.457031 49.933594 C 3.378906 49.910156 3.300781 49.890625 3.226562 49.859375 C 3.152344 49.832031 3.089844 49.789062 3.019531 49.75 C 2.976562 49.726562 2.925781 49.707031 2.886719 49.675781 C 2.777344 49.605469 2.675781 49.523438 2.582031 49.433594 C 2.488281 49.339844 2.40625 49.238281 2.335938 49.132812 C 2.296875 49.074219 2.269531 49.011719 2.234375 48.949219 C 2.207031 48.898438 2.175781 48.847656 2.152344 48.792969 C 2.117188 48.710938 2.097656 48.621094 2.070312 48.535156 C 2.0625 48.496094 2.046875 48.457031 2.035156 48.417969 C 2.007812 48.289062 1.996094 48.15625 1.996094 48.019531 C 1.996094 46.921875 2.894531 46.023438 3.992188 46.023438 L 6.988281 46.023438 C 7.539062 46.023438 7.988281 45.574219 7.988281 45.023438 L 7.988281 10.082031 L 42.929688 10.082031 L 42.929688 8.085938 L 7.988281 8.085938 L 7.988281 3.09375 C 7.988281 2.546875 7.539062 2.097656 6.988281 2.097656 L 3.992188 2.097656 C 1.789062 2.097656 0 3.886719 0 6.089844 L 0 48.019531 C 0 48.292969 0.0273438 48.558594 0.0820312 48.816406 C 0.09375 48.882812 0.121094 48.941406 0.136719 49.003906 " fill-opacity="1" fill-rule="nonzero"/><path fill="#ffffff" d="M 26.902344 25.59375 L 28.871094 28.054688 L 17.054688 28.054688 L 22.960938 20.667969 Z M 29.949219 40.035156 L 26.953125 40.035156 L 26.953125 33.046875 C 26.953125 32.496094 26.507812 32.046875 25.957031 32.046875 L 19.964844 32.046875 C 19.417969 32.046875 18.96875 32.496094 18.96875 33.046875 L 18.96875 40.035156 L 15.972656 40.035156 L 15.972656 30.050781 L 29.949219 30.050781 Z M 24.957031 40.035156 L 20.964844 40.035156 L 20.964844 34.042969 L 24.957031 34.042969 Z M 33.945312 18.070312 L 22.960938 18.070312 C 22.660156 18.070312 22.382812 18.207031 22.199219 18.433594 C 22.195312 18.4375 22.1875 18.441406 22.183594 18.445312 L 14.195312 28.425781 C 14.140625 28.496094 14.097656 28.570312 14.066406 28.644531 C 14.0625 28.652344 14.058594 28.65625 14.054688 28.664062 C 14.007812 28.773438 13.988281 28.890625 13.984375 29.011719 C 13.984375 29.023438 13.976562 29.035156 13.976562 29.050781 L 13.976562 41.03125 C 13.976562 41.582031 14.425781 42.03125 14.976562 42.03125 L 40.933594 42.03125 L 40.933594 40.035156 L 31.945312 40.035156 L 31.945312 30.050781 L 45.921875 30.050781 L 45.921875 36.039062 L 47.921875 36.039062 L 47.921875 29.050781 C 47.921875 29.035156 47.914062 29.023438 47.914062 29.011719 C 47.910156 28.890625 47.890625 28.773438 47.84375 28.664062 C 47.839844 28.65625 47.832031 28.652344 47.828125 28.644531 C 47.796875 28.566406 47.757812 28.492188 47.703125 28.425781 L 44.707031 24.679688 L 43.148438 25.929688 L 44.847656 28.054688 L 31.429688 28.054688 L 27.167969 22.730469 L 25.039062 20.066406 L 33.945312 20.066406 L 33.945312 18.070312 " fill-opacity="1" fill-rule="nonzero"/><path fill="#ffffff" d="M 39.933594 36.039062 L 37.9375 36.039062 L 37.9375 34.042969 L 39.933594 34.042969 Z M 36.9375 32.046875 C 36.386719 32.046875 35.941406 32.496094 35.941406 33.046875 L 35.941406 37.039062 C 35.941406 37.589844 36.386719 38.035156 36.9375 38.035156 L 40.933594 38.035156 C 41.480469 38.035156 41.929688 37.589844 41.929688 37.039062 L 41.929688 33.046875 C 41.929688 32.496094 41.480469 32.046875 40.933594 32.046875 L 36.9375 32.046875 " fill-opacity="1" fill-rule="nonzero"/><path fill="#ffffff" d="M 57.902344 58.003906 L 30.363281 58.003906 L 57.902344 30.464844 Z M 59.285156 27.132812 C 58.910156 26.976562 58.480469 27.0625 58.195312 27.347656 L 27.246094 58.296875 C 26.960938 58.582031 26.878906 59.007812 27.03125 59.382812 C 27.183594 59.757812 27.546875 60 27.953125 60 L 58.902344 60 C 59.453125 60 59.898438 59.550781 59.898438 59 L 59.898438 28.054688 C 59.898438 27.648438 59.660156 27.285156 59.285156 27.132812 " fill-opacity="1" fill-rule="nonzero"/><path fill="#ffffff" d="M 51.914062 45.4375 L 51.914062 52.011719 L 45.339844 52.011719 Z M 42.007812 53.394531 C 42.160156 53.769531 42.523438 54.011719 42.929688 54.011719 L 52.910156 54.011719 C 53.460938 54.011719 53.910156 53.5625 53.910156 53.011719 L 53.910156 43.027344 C 53.910156 42.621094 53.667969 42.261719 53.292969 42.109375 C 52.917969 41.953125 52.496094 42.039062 52.207031 42.324219 L 42.222656 52.304688 C 41.9375 52.589844 41.851562 53.019531 42.007812 53.394531 " fill-opacity="1" fill-rule="nonzero"/><path fill="#ffffff" d="M 46.921875 15.660156 L 44.339844 13.078125 L 54.910156 2.511719 L 57.488281 5.089844 Z M 41.429688 21.152344 L 38.847656 18.570312 L 42.929688 14.488281 L 45.511719 17.070312 Z M 38.207031 22.917969 L 37.082031 21.792969 L 37.625 20.167969 L 39.832031 22.375 Z M 55.613281 0.390625 C 55.222656 0.00390625 54.59375 0.00390625 54.203125 0.390625 L 36.234375 18.363281 C 36.125 18.472656 36.042969 18.605469 35.992188 18.753906 L 34.992188 21.746094 C 34.871094 22.105469 34.96875 22.503906 35.234375 22.769531 L 35.527344 23.0625 L 33.238281 25.351562 L 34.648438 26.761719 L 36.9375 24.472656 L 37.230469 24.765625 C 37.421875 24.957031 37.675781 25.058594 37.9375 25.058594 C 38.042969 25.058594 38.152344 25.042969 38.253906 25.007812 L 41.246094 24.007812 C 41.394531 23.957031 41.527344 23.875 41.636719 23.765625 L 59.609375 5.796875 C 59.996094 5.40625 59.996094 4.777344 59.609375 4.386719 L 55.613281 0.390625 " fill-opacity="1" fill-rule="nonzero"/><path fill="#ffffff" d="M 9.984375 42.03125 L 9.984375 45.023438 C 9.984375 45.574219 10.433594 46.023438 10.980469 46.023438 L 13.976562 46.023438 L 13.976562 44.027344 L 11.980469 44.027344 L 11.980469 42.03125 L 9.984375 42.03125 " fill-opacity="1" fill-rule="nonzero"/><path fill="#ffffff" d="M 13.976562 12.078125 L 10.980469 12.078125 C 10.433594 12.078125 9.984375 12.527344 9.984375 13.078125 L 9.984375 16.074219 L 11.980469 16.074219 L 11.980469 14.078125 L 13.976562 14.078125 L 13.976562 12.078125 " fill-opacity="1" fill-rule="nonzero"/></svg>