<svg xmlns="http://www.w3.org/2000/svg" xmlns:xlink="http://www.w3.org/1999/xlink" width="80" zoomAndPan="magnify" viewBox="0 0 60 60" height="80" preserveAspectRatio="xMidYMid meet" version="1.0"><path fill="#fdfdfd" d="M 45.433594 58.070312 C 38.519531 58.070312 32.894531 52.445312 32.894531 45.53125 C 32.894531 38.617188 38.519531 32.992188 45.433594 32.992188 C 52.347656 32.992188 57.972656 38.617188 57.972656 45.53125 C 57.972656 52.445312 52.347656 58.070312 45.433594 58.070312 Z M 32.894531 25.273438 L 32.894531 31.0625 L 25.175781 31.0625 L 25.175781 25.273438 Z M 28.191406 40.707031 C 26.96875 37.273438 24.503906 34.429688 21.316406 32.742188 L 21.316406 19.484375 L 31.808594 19.484375 C 32.304688 20.882812 33.007812 22.179688 33.886719 23.34375 L 23.246094 23.34375 L 23.246094 32.992188 L 34.824219 32.992188 L 34.824219 24.46875 C 35.410156 25.105469 36.058594 25.6875 36.753906 26.210938 L 36.753906 33.980469 C 34.503906 35.675781 32.769531 38.003906 31.808594 40.707031 Z M 14.566406 58.070312 C 7.652344 58.070312 2.027344 52.445312 2.027344 45.53125 C 2.027344 38.617188 7.652344 32.992188 14.566406 32.992188 C 21.480469 32.992188 27.105469 38.617188 27.105469 45.53125 C 27.105469 52.445312 21.480469 58.070312 14.566406 58.070312 Z M 15.53125 31.109375 C 15.210938 31.085938 14.890625 31.0625 14.566406 31.0625 C 12.128906 31.0625 9.832031 31.675781 7.8125 32.742188 L 7.8125 23.34375 L 15.53125 23.34375 Z M 3.953125 19.484375 L 19.390625 19.484375 L 19.390625 31.90625 C 18.761719 31.683594 18.121094 31.488281 17.460938 31.351562 L 17.460938 21.414062 L 5.882812 21.414062 L 5.882812 33.980469 C 5.191406 34.503906 4.546875 35.089844 3.953125 35.726562 Z M 2.027344 15.628906 L 19.390625 15.628906 L 19.390625 17.554688 L 2.027344 17.554688 Z M 19.1875 2.507812 C 19.246094 2.460938 19.320312 2.441406 19.390625 2.40625 L 19.390625 13.699219 L 3.996094 13.699219 L 11.023438 8.519531 L 11.949219 10.6875 L 17.269531 11.75 L 17.648438 9.859375 L 13.324219 8.992188 L 12.617188 7.34375 Z M 25.699219 5.585938 L 23.246094 8.523438 L 23.246094 11.769531 L 25.175781 11.769531 L 25.175781 10.433594 L 27.636719 11.667969 L 28.503906 9.941406 L 25.734375 8.554688 L 27.257812 6.730469 L 31.738281 10.03125 C 31.34375 11.195312 31.101562 12.425781 31.011719 13.699219 L 21.316406 13.699219 L 21.316406 2.402344 C 21.386719 2.441406 21.460938 2.460938 21.523438 2.507812 Z M 31.011719 15.628906 C 31.054688 16.28125 31.125 16.925781 31.253906 17.554688 L 21.316406 17.554688 L 21.316406 15.628906 Z M 45.433594 2.121094 C 52.347656 2.121094 57.972656 7.746094 57.972656 14.664062 C 57.972656 21.578125 52.347656 27.203125 45.433594 27.203125 C 38.519531 27.203125 32.894531 21.578125 32.894531 14.664062 C 32.894531 7.746094 38.519531 2.121094 45.433594 2.121094 Z M 45.433594 31.0625 C 42.996094 31.0625 40.703125 31.675781 38.683594 32.742188 L 38.683594 27.453125 C 40.703125 28.519531 42.996094 29.132812 45.433594 29.132812 C 53.410156 29.132812 59.902344 22.644531 59.902344 14.664062 C 59.902344 6.679688 53.410156 0.191406 45.433594 0.191406 C 39.777344 0.191406 34.882812 3.464844 32.503906 8.199219 L 22.667969 0.949219 C 21.335938 -0.0273438 19.371094 -0.03125 18.039062 0.953125 L 0.0976562 14.175781 L 0.0976562 19.484375 L 2.027344 19.484375 L 2.027344 38.339844 C 0.804688 40.460938 0.0976562 42.910156 0.0976562 45.53125 C 0.0976562 53.507812 6.589844 60 14.566406 60 C 22.542969 60 29.035156 53.507812 29.035156 45.53125 C 29.035156 44.539062 28.933594 43.570312 28.746094 42.636719 L 31.253906 42.636719 C 31.066406 43.570312 30.964844 44.539062 30.964844 45.53125 C 30.964844 53.507812 37.457031 60 45.433594 60 C 53.410156 60 59.902344 53.507812 59.902344 45.53125 C 59.902344 37.550781 53.410156 31.0625 45.433594 31.0625 " fill-opacity="1" fill-rule="nonzero"/><path fill="#fdfdfd" d="M 20.355469 40.707031 L 12.636719 40.707031 C 12.105469 40.707031 11.671875 40.273438 11.671875 39.742188 C 11.671875 39.210938 12.105469 38.777344 12.636719 38.777344 L 20.355469 38.777344 C 20.886719 38.777344 21.316406 39.210938 21.316406 39.742188 C 21.316406 40.273438 20.886719 40.707031 20.355469 40.707031 Z M 15.53125 53.246094 C 15.53125 53.777344 15.097656 54.210938 14.566406 54.210938 C 14.035156 54.210938 13.601562 53.777344 13.601562 53.246094 L 13.601562 51.316406 C 13.601562 50.785156 14.035156 50.355469 14.566406 50.355469 C 15.097656 50.355469 15.53125 50.785156 15.53125 51.316406 Z M 20.355469 36.847656 L 12.636719 36.847656 C 11.382812 36.847656 10.320312 37.660156 9.917969 38.777344 L 5.882812 38.777344 L 5.882812 44.355469 L 13.601562 46.285156 L 13.601562 48.601562 C 12.480469 49 11.671875 50.0625 11.671875 51.316406 L 11.671875 53.246094 C 11.671875 54.84375 12.96875 56.140625 14.566406 56.140625 C 16.164062 56.140625 17.460938 54.84375 17.460938 53.246094 L 17.460938 51.316406 C 17.460938 50.0625 16.648438 49 15.53125 48.601562 L 15.53125 44.777344 L 7.8125 42.847656 L 7.8125 40.707031 L 9.917969 40.707031 C 10.320312 41.828125 11.382812 42.636719 12.636719 42.636719 L 20.355469 42.636719 C 21.953125 42.636719 23.246094 41.339844 23.246094 39.742188 C 23.246094 38.144531 21.953125 36.847656 20.355469 36.847656 " fill-opacity="1" fill-rule="nonzero"/><path fill="#fdfdfd" d="M 39.246094 13.699219 L 39.644531 13.699219 C 41.773438 13.699219 43.503906 11.96875 43.503906 9.839844 L 43.503906 9.441406 L 41.996094 7.933594 C 43.925781 8.144531 45.433594 9.78125 45.433594 11.769531 C 45.433594 12.234375 45.34375 12.707031 45.160156 13.171875 L 44.929688 13.757812 L 50.9375 19.769531 C 51.125 19.953125 51.222656 20.191406 51.222656 20.449219 C 51.222656 20.710938 51.125 20.949219 50.9375 21.132812 C 50.570312 21.5 49.945312 21.5 49.574219 21.132812 L 43.566406 15.121094 L 42.976562 15.351562 C 42.515625 15.535156 42.042969 15.628906 41.574219 15.628906 C 39.589844 15.628906 37.949219 14.121094 37.738281 12.191406 Z M 41.574219 17.554688 C 42.078125 17.554688 42.574219 17.488281 43.066406 17.351562 L 48.210938 22.496094 C 48.757812 23.042969 49.484375 23.34375 50.257812 23.34375 C 51.03125 23.34375 51.757812 23.042969 52.304688 22.496094 C 52.851562 21.949219 53.152344 21.222656 53.152344 20.449219 C 53.152344 19.675781 52.851562 18.949219 52.304688 18.402344 L 47.160156 13.261719 C 47.296875 12.765625 47.363281 12.269531 47.363281 11.769531 C 47.363281 8.578125 44.765625 5.980469 41.574219 5.980469 L 41.175781 5.980469 L 39.246094 7.910156 L 41.542969 10.203125 C 41.390625 10.976562 40.785156 11.582031 40.011719 11.734375 L 37.71875 9.441406 L 35.789062 11.367188 L 35.789062 11.769531 C 35.789062 14.960938 38.382812 17.554688 41.574219 17.554688 " fill-opacity="1" fill-rule="nonzero"/><path fill="#fdfdfd" d="M 49.882812 46.6875 L 44.277344 41.082031 C 46.511719 40.300781 48.832031 39.859375 51.203125 39.761719 C 51.105469 42.128906 50.664062 44.453125 49.882812 46.6875 Z M 42.257812 50.070312 L 40.328125 52 C 39.960938 52.371094 39.332031 52.371094 38.964844 52 C 38.78125 51.816406 38.683594 51.578125 38.683594 51.316406 C 38.683594 51.058594 38.78125 50.820312 38.964844 50.636719 L 40.894531 48.707031 C 41.078125 48.523438 41.316406 48.425781 41.574219 48.425781 C 41.835938 48.425781 42.074219 48.523438 42.257812 48.707031 C 42.441406 48.890625 42.539062 49.128906 42.539062 49.390625 C 42.539062 49.648438 42.441406 49.886719 42.257812 50.070312 Z M 42.527344 39.675781 L 40.820312 40.351562 L 45.035156 44.566406 L 42.808594 46.792969 C 41.734375 46.308594 40.386719 46.488281 39.53125 47.34375 L 37.601562 49.273438 C 37.054688 49.820312 36.753906 50.546875 36.753906 51.316406 C 36.753906 52.089844 37.054688 52.816406 37.601562 53.363281 C 38.148438 53.910156 38.875 54.210938 39.644531 54.210938 C 40.417969 54.210938 41.144531 53.910156 41.691406 53.363281 L 43.621094 51.433594 C 44.167969 50.890625 44.46875 50.160156 44.46875 49.390625 C 44.46875 48.953125 44.363281 48.535156 44.179688 48.148438 L 46.398438 45.929688 L 50.609375 50.144531 L 51.289062 48.441406 C 52.527344 45.351562 53.152344 42.101562 53.152344 38.777344 L 53.152344 37.8125 L 52.1875 37.8125 C 48.863281 37.8125 45.609375 38.4375 42.527344 39.675781 " fill-opacity="1" fill-rule="nonzero"/></svg>