<svg xmlns="http://www.w3.org/2000/svg" xmlns:xlink="http://www.w3.org/1999/xlink" width="80" zoomAndPan="magnify" viewBox="0 0 60 60" height="80" preserveAspectRatio="xMidYMid meet" version="1.0"><path fill="#ffffff" d="M 53.226562 20.570312 L 53.226562 4.839844 C 53.226562 4.304688 52.792969 3.871094 52.257812 3.871094 L 42.582031 3.871094 C 42.046875 3.871094 41.613281 4.304688 41.613281 4.839844 L 41.613281 10.117188 L 30.648438 0.25 C 30.46875 0.0898438 30.238281 0 30 0 C 29.628906 0 29.628906 0 14.835938 13.3125 L 0.320312 26.378906 C 0.121094 26.554688 0.0078125 26.804688 0 27.070312 C -0.0078125 27.335938 0.0976562 27.59375 0.285156 27.78125 L 3.1875 30.683594 C 3.546875 31.046875 4.132812 31.066406 4.511719 30.722656 L 6.773438 28.714844 L 6.773438 59.03125 C 6.773438 59.566406 7.207031 60 7.742188 60 L 52.257812 60 C 52.792969 60 53.226562 59.566406 53.226562 59.03125 L 53.226562 28.714844 L 55.488281 30.722656 C 55.667969 30.886719 55.898438 30.96875 56.128906 30.96875 C 56.378906 30.96875 56.625 30.871094 56.8125 30.683594 L 59.714844 27.78125 C 59.902344 27.59375 60.007812 27.335938 60 27.070312 C 59.992188 26.804688 59.878906 26.554688 59.679688 26.378906 Z M 43.546875 5.804688 L 51.289062 5.804688 L 51.289062 18.828125 L 43.546875 11.859375 Z M 8.710938 49.828125 L 16.371094 43.867188 L 19.980469 47.476562 L 11.15625 58.066406 L 8.710938 58.066406 Z M 25.757812 28.261719 C 24.433594 26.9375 22.78125 25.964844 20.976562 25.449219 L 17.742188 24.523438 C 17.550781 24.46875 17.417969 24.292969 17.417969 24.097656 C 17.417969 23.929688 17.511719 23.777344 17.664062 23.703125 C 18.285156 23.390625 18.984375 23.226562 19.679688 23.226562 C 19.679688 23.226562 19.683594 23.226562 19.683594 23.226562 C 22.566406 23.230469 25.398438 23.742188 28.101562 24.757812 C 30.289062 25.578125 32.238281 26.832031 33.890625 28.484375 L 36.773438 31.367188 L 36.773438 33.46875 C 36.773438 34.609375 37.21875 35.683594 38.027344 36.492188 C 38.65625 37.121094 39.453125 37.523438 40.316406 37.671875 L 36.703125 41.28125 C 36.554688 40.421875 36.15625 39.625 35.523438 38.992188 C 34.714844 38.1875 33.644531 37.742188 32.503906 37.742188 C 30.628906 37.742188 28.871094 38.46875 27.546875 39.792969 L 27.097656 40.246094 L 23.625 36.773438 L 25.800781 34.601562 C 26.636719 33.761719 27.097656 32.652344 27.097656 31.429688 C 27.097656 30.25 26.636719 29.140625 25.757812 28.261719 Z M 42.582031 38.144531 L 45.082031 40.644531 L 39.675781 46.050781 L 37.175781 43.546875 Z M 24.761719 40.644531 L 20.324219 45.082031 L 18.789062 43.546875 L 23.226562 39.109375 Z M 51.289062 58.066406 L 13.679688 58.066406 L 22.035156 48.039062 C 22.355469 47.65625 22.328125 47.089844 21.972656 46.734375 L 21.691406 46.453125 L 26.128906 42.011719 L 26.414062 42.296875 C 26.789062 42.675781 27.402344 42.675781 27.78125 42.296875 L 28.914062 41.164062 C 29.875 40.203125 31.148438 39.675781 32.503906 39.675781 C 33.125 39.675781 33.714844 39.921875 34.15625 40.363281 C 34.597656 40.804688 34.839844 41.390625 34.839844 42.011719 L 34.839844 43.546875 C 34.839844 43.804688 34.941406 44.050781 35.121094 44.234375 L 38.992188 48.105469 C 39.183594 48.292969 39.429688 48.386719 39.675781 48.386719 C 39.925781 48.386719 40.171875 48.292969 40.363281 48.105469 L 47.136719 41.328125 C 47.515625 40.949219 47.515625 40.339844 47.136719 39.960938 L 43.265625 36.089844 C 43.082031 35.90625 42.839844 35.804688 42.582031 35.804688 L 41.046875 35.804688 C 40.421875 35.804688 39.835938 35.5625 39.394531 35.121094 C 38.953125 34.679688 38.710938 34.09375 38.710938 33.46875 L 38.710938 30.96875 C 38.710938 30.710938 38.609375 30.464844 38.425781 30.285156 L 35.257812 27.113281 C 33.410156 25.265625 31.230469 23.863281 28.777344 22.941406 C 25.859375 21.851562 22.804688 21.292969 19.6875 21.289062 C 19.683594 21.289062 19.679688 21.289062 19.679688 21.289062 C 18.683594 21.289062 17.6875 21.527344 16.800781 21.96875 C 15.988281 22.375 15.484375 23.191406 15.484375 24.097656 C 15.484375 25.152344 16.191406 26.09375 17.207031 26.382812 L 20.445312 27.308594 C 21.933594 27.734375 23.296875 28.535156 24.433594 29.671875 C 24.902344 30.140625 25.160156 30.765625 25.160156 31.472656 C 25.160156 32.136719 24.902344 32.761719 24.433594 33.230469 L 21.574219 36.089844 C 21.195312 36.464844 21.195312 37.078125 21.574219 37.457031 L 21.855469 37.742188 L 17.417969 42.179688 L 17.136719 41.894531 C 16.789062 41.550781 16.242188 41.515625 15.855469 41.816406 L 8.710938 47.375 L 8.710938 26.992188 L 30 8.070312 L 51.289062 26.992188 Z M 56.089844 28.671875 L 30.644531 6.050781 C 30.460938 5.886719 30.230469 5.804688 30 5.804688 C 29.769531 5.804688 29.539062 5.886719 29.355469 6.050781 L 3.910156 28.671875 L 2.371094 27.132812 C 6.496094 23.425781 26.175781 5.710938 30 2.269531 L 57.628906 27.132812 Z M 56.089844 28.671875 " fill-opacity="1" fill-rule="nonzero"/></svg>