<svg xmlns="http://www.w3.org/2000/svg" xmlns:xlink="http://www.w3.org/1999/xlink" width="80" zoomAndPan="magnify" viewBox="0 0 60 60" height="80" preserveAspectRatio="xMidYMid meet" version="1.0"><defs><clipPath id="d3122f828e"><path d="M 16 9.375 L 35 9.375 L 35 50.625 L 16 50.625 Z M 16 9.375 " clip-rule="nonzero"/></clipPath></defs><path fill="#ffffff" d="M 51.066406 43.1875 C 51.582031 43.1875 52.003906 42.765625 52.003906 42.253906 L 52.003906 35.707031 C 52.003906 35.191406 51.582031 34.769531 51.066406 34.769531 L 46.390625 34.769531 C 45.875 34.769531 45.457031 35.191406 45.457031 35.707031 L 45.457031 42.253906 C 45.457031 42.765625 45.875 43.1875 46.390625 43.1875 Z M 47.328125 36.640625 L 50.132812 36.640625 L 50.132812 41.316406 L 47.328125 41.316406 Z M 47.328125 36.640625 " fill-opacity="1" fill-rule="nonzero"/><path fill="#ffffff" d="M 34.230469 15.597656 L 33.484375 17.46875 L 49.195312 17.46875 L 49.195312 22.144531 L 31.613281 22.144531 L 30.863281 24.015625 L 52.65625 24.015625 L 57.242188 30.5625 L 28.199219 30.5625 L 27.453125 32.433594 L 53.875 32.433594 L 53.875 44.589844 L 43.585938 44.589844 L 43.585938 36.171875 C 43.585938 35.660156 43.164062 35.238281 42.648438 35.238281 L 33.296875 35.238281 C 32.78125 35.238281 32.363281 35.660156 32.363281 36.171875 L 32.363281 44.589844 L 22.496094 44.589844 L 21.746094 46.460938 L 54.808594 46.460938 C 55.324219 46.460938 55.746094 46.039062 55.746094 45.527344 L 55.746094 32.433594 L 59.019531 32.433594 C 59.34375 32.433594 59.671875 32.246094 59.859375 31.917969 C 60 31.589844 60 31.214844 59.8125 30.933594 L 53.875 22.515625 C 53.6875 22.285156 53.40625 22.144531 53.125 22.144531 L 51.066406 22.144531 L 51.066406 17.46875 L 52.703125 17.46875 C 53.21875 17.46875 53.640625 17.046875 53.640625 16.53125 L 53.640625 12.789062 C 53.640625 12.277344 53.21875 11.855469 52.703125 11.855469 L 35.777344 11.855469 L 35.027344 13.726562 L 51.816406 13.726562 L 51.816406 15.597656 Z M 41.714844 44.589844 L 34.230469 44.589844 L 34.230469 37.109375 L 41.714844 37.109375 Z M 41.714844 44.589844 " fill-opacity="1" fill-rule="nonzero"/><path fill="#ffffff" d="M 16.742188 15.875 L 0.375 32.246094 C 0 32.617188 0 33.179688 0.375 33.554688 C 0.75 33.929688 1.308594 33.929688 1.683594 33.554688 L 3.929688 31.308594 L 3.929688 45.433594 C 3.929688 45.945312 4.347656 46.367188 4.863281 46.367188 L 15.761719 46.367188 L 16.507812 44.496094 L 13.984375 44.496094 L 13.984375 36.546875 L 19.734375 36.546875 L 20.484375 34.675781 L 13.046875 34.675781 C 12.53125 34.675781 12.113281 35.097656 12.113281 35.613281 L 12.113281 44.496094 L 5.800781 44.496094 L 5.800781 29.484375 L 17.398438 17.839844 L 24.410156 24.855469 L 25.160156 22.984375 L 18.050781 15.875 C 17.675781 15.503906 17.117188 15.503906 16.742188 15.875 Z M 16.742188 15.875 " fill-opacity="1" fill-rule="nonzero"/><g clip-path="url(#d3122f828e)"><path fill="#ffffff" d="M 33.625 9.5625 C 33.15625 9.375 32.59375 9.609375 32.410156 10.078125 L 16.507812 49.359375 C 16.320312 49.828125 16.554688 50.390625 17.023438 50.578125 C 17.117188 50.625 17.257812 50.625 17.351562 50.625 C 17.722656 50.625 18.050781 50.390625 18.238281 50.015625 L 34.140625 10.734375 C 34.371094 10.3125 34.140625 9.796875 33.625 9.5625 Z M 33.625 9.5625 " fill-opacity="1" fill-rule="nonzero"/></g></svg>